<?xml version="1.0" encoding="UTF-8"?>
<svg id="Capa_1" data-name="Capa 1" xmlns="http://www.w3.org/2000/svg" xmlns:xlink="http://www.w3.org/1999/xlink" viewBox="0 0 1920 1080">
  <defs>
    <style>
      .cls-1 {
        fill: rgba(51,51,51,.4);
      }

      .cls-2 {
        fill: url(#Motivo_nuevo);
      }

      .cls-3 {
        fill: #252525;
      }
    </style>
    <pattern id="Motivo_nuevo" data-name="Motivo nuevo" x="0" y="0" width="600" height="600" patternTransform="translate(109 62)" patternUnits="userSpaceOnUse" viewBox="0 0 600 600">
      <g>
        <rect class="cls-3" y="0" width="600" height="600"/>
        <g>
          <path class="cls-1" d="m597.44,573.05c3.76-2.34,4.92-7.28,2.58-11.04-1.11-1.79-2.82-2.98-4.7-3.5l-1.04-24.77-15.5-17.17h0s-13.66-15.19-13.66-15.19l.09-8.09-4.81-.05-.09,8.39-7.25,7.31-.37,30.59c-.86.19-1.71.52-2.51,1.01-3.76,2.34-4.92,7.28-2.58,11.04,2.34,3.76,7.28,4.92,11.04,2.58,3.76-2.34,4.92-7.28,2.58-11.04-.92-1.48-2.24-2.55-3.73-3.17l.35-29.66,5.29-3.95,11.43,12.7-1.09,21.6c-.79.2-1.56.51-2.29.97-3.76,2.34-4.92,7.28-2.58,11.04,2.34,3.76,7.28,4.92,11.04,2.58,3.76-2.34,4.92-7.28,2.58-11.04-.96-1.55-2.37-2.65-3.95-3.25l.85-16.84,10.44,11.56.97,23c-.53.19-1.04.43-1.53.74-3.76,2.34-4.92,7.28-2.58,11.04,2.34,3.76,7.28,4.92,11.04,2.58Zm-45.44-29.57c.71-.44,1.49-.64,2.27-.67h.54c1.38.14,2.68.87,3.47,2.14,1.33,2.14.67,4.95-1.47,6.28-2.14,1.33-4.95.67-6.28-1.47-1.33-2.14-.67-4.95,1.47-6.28Zm20.99,1.08c.79-.49,1.67-.7,2.53-.68h.11c1.44.08,2.82.83,3.64,2.15,1.33,2.14.67,4.95-1.47,6.28s-4.95.67-6.28-1.47-.67-4.95,1.47-6.28Zm22.63,25.55c-2.14,1.33-4.95.67-6.28-1.47s-.67-4.95,1.47-6.28c2.14-1.33,4.95-.67,6.28,1.47,1.33,2.14.67,4.95-1.47,6.28Z"/>
          <path class="cls-1" d="m715.85,499.07c-3.59,0-6.63,2.36-7.65,5.61h-34.74s-6.54,11.16-6.54,11.16h-21.44l-11.17,9.11h-1.98s-23.43,0-23.43,0l-17.3-21.38-6.05.06,21,26.13h23.14s4.1,0,4.1,0l19.74,24.1h18.98c1.02,3.25,4.06,5.61,7.65,5.61,4.43,0,8.02-3.59,8.02-8.02s-3.59-8.02-8.02-8.02c-3.59,0-6.63,2.36-7.65,5.61h-16.24l-17.97-21.14,8.9-7.25h19.69l6.62,11.79h28.18c1.02,3.25,4.06,5.61,7.65,5.61,4.43,0,8.02-3.59,8.02-8.02s-3.59-8.02-8.02-8.02c-3.59,0-6.63,2.36-7.65,5.61h-25.36l-5.26-9.36,5.15-8.77h31.98c1.02,3.25,4.06,5.61,7.65,5.61,4.43,0,8.02-3.59,8.02-8.02s-3.59-8.02-8.02-8.02Zm-40.25,52.38c0-2.52,2.04-4.56,4.56-4.56s4.56,2.04,4.56,4.56-2.04,4.56-4.56,4.56-4.56-2.04-4.56-4.56h0Zm33.74-25.97c2.52,0,4.56,2.04,4.56,4.56s-2.04,4.56-4.56,4.56-4.56-2.04-4.56-4.56,2.04-4.56,4.56-4.56Zm6.5-13.82c-2.52,0-4.56-2.04-4.56-4.56s2.04-4.56,4.56-4.56,4.56,2.04,4.56,4.56-2.04,4.56-4.56,4.56Z"/>
          <path class="cls-1" d="m567.33,586.54c-1.05-2.92-3.84-5.01-7.12-5.01-4.18,0-7.58,3.39-7.58,7.58s3.39,7.58,7.58,7.58c3.5,0,6.43-2.37,7.31-5.6h29.38l10.01,12.86h-16.81c-.97-3.07-3.84-5.3-7.23-5.3-4.18,0-7.58,3.39-7.58,7.58s3.39,7.58,7.58,7.58c3.39,0,6.26-2.23,7.23-5.3h21.19s-11.72,12.41-11.72,12.41h-20.06c-1.05-2.92-3.84-5.01-7.12-5.01-4.18,0-7.58,3.39-7.58,7.58s3.39,7.58,7.58,7.58c3.5,0,6.43-2.37,7.31-5.6h21.54s17.11-16.95,17.11-16.95h8.75v-4.55h-14.41s-13.55-17.41-13.55-17.41h-31.79Zm-7.12,6.88c-2.38,0-4.31-1.93-4.31-4.31s1.93-4.31,4.31-4.31,4.31,1.93,4.31,4.31-1.93,4.31-4.31,4.31Zm12.17,34.36c-2.38,0-4.31-1.93-4.31-4.31s1.93-4.31,4.31-4.31,4.24,1.87,4.3,4.2v.21c-.06,2.33-1.96,4.2-4.3,4.2Zm10.49-17.25c-2.38,0-4.31-1.93-4.31-4.31s1.93-4.31,4.31-4.31,4.31,1.93,4.31,4.31-1.93,4.31-4.31,4.31Z"/>
        </g>
        <g>
          <path class="cls-1" d="m645.6,494.43c-3.59,0-6.63,2.36-7.65,5.61h-55.69s-8.12-5.8-8.12-5.8l5.26-9.36h38.63c1.02,3.25,4.06,5.61,7.65,5.61,4.43,0,8.02-3.59,8.02-8.02s-3.59-8.02-8.02-8.02c-3.59,0-6.63,2.36-7.65,5.61h-41.45l-6.62,11.79h-19.69l-8.9-7.25,17.97-24.11h29.51c1.02,3.25,4.06,5.61,7.65,5.61,4.43,0,8.02-3.59,8.02-8.02s-3.59-8.02-8.02-8.02c-3.59,0-6.63,2.36-7.65,5.61h-32.25l-19.74,27.07h-4.1s-22.02,0-22.02,0l-21.25,17.95h-6.11v4.81h5.81s14.34,18.42,14.34,18.42h25.97c1.11,3.09,4.06,5.3,7.54,5.3,4.43,0,8.02-3.59,8.02-8.02s-3.59-8.02-8.02-8.02c-3.7,0-6.81,2.51-7.73,5.92h-23.43l-10.59-13.61h22.22c1.02,3.25,4.06,5.61,7.65,5.61,4.43,0,8.02-3.59,8.02-8.02s-3.59-8.02-8.02-8.02c-3.59,0-6.63,2.36-7.65,5.61h-20.56s15.55-13.13,15.55-13.13h21.02s0,0,0,0h3.85l11.17,9.11h21.44l9.51,8.18h58.45c1.02,3.26,4.06,5.62,7.65,5.62,4.43,0,8.02-3.59,8.02-8.02s-3.59-8.02-8.02-8.02Zm-19.92-16.52c2.52,0,4.56,2.04,4.56,4.56s-2.04,4.56-4.56,4.56-4.56-2.04-4.56-4.56,2.04-4.56,4.56-4.56Zm-33.74-19.83c0-2.52,2.04-4.56,4.56-4.56s4.56,2.04,4.56,4.56-2.04,4.56-4.56,4.56-4.56-2.04-4.56-4.56h0Zm-54.89,58.58c2.52,0,4.56,2.04,4.56,4.56s-2.04,4.56-4.56,4.56-4.56-2.04-4.56-4.56,2.04-4.56,4.56-4.56Zm-11.88-18.12c2.52,0,4.56,2.04,4.56,4.56s-2.04,4.56-4.56,4.56-4.56-2.04-4.56-4.56,2.04-4.56,4.56-4.56Zm120.44,8.47c-2.52,0-4.56-2.04-4.56-4.56s2.04-4.56,4.56-4.56,4.56,2.04,4.56,4.56-2.04,4.56-4.56,4.56Z"/>
          <path class="cls-1" d="m494.94,597.38c2.38-3.73,1.29-8.69-2.44-11.07-.49-.31-1-.56-1.53-.76l1.26-22.99,10.59-11.43.63,16.85c-1.59.58-3.01,1.66-3.99,3.2-2.38,3.73-1.29,8.69,2.44,11.07,3.73,2.38,8.69,1.29,11.07-2.44s1.29-8.69-2.44-11.07c-.72-.46-1.49-.79-2.28-1l-.81-21.61,11.59-12.56,11.18,12.9.18,42.93c-1.5.6-2.84,1.65-3.77,3.12-2.38,3.73-1.29,8.69,2.44,11.07s8.69,1.29,11.07-2.44c2.38-3.73,1.29-8.69-2.44-11.07-.79-.5-1.63-.84-2.49-1.04l-.19-43.86-13.1-16.28.02-8.39h-4.81s-.02,8.08-.02,8.08l-13.85,15.01h0s-15.72,16.97-15.72,16.97l-1.36,24.75c-1.89.49-3.61,1.66-4.74,3.44-2.38,3.73-1.29,8.69,2.44,11.07,3.73,2.38,8.69,1.29,11.07-2.44Zm42.29,1.91c-1.36,2.12-4.18,2.75-6.3,1.39-2.12-1.36-2.75-4.18-1.39-6.3.8-1.26,2.12-1.97,3.5-2.08h.54c.78.02,1.56.24,2.27.69,2.12,1.36,2.75,4.18,1.39,6.3Zm-27.16-21.34c-1.36,2.12-4.18,2.75-6.3,1.39s-2.75-4.18-1.39-6.3c.84-1.31,2.23-2.04,3.67-2.1h.11c.86-.02,1.74.21,2.52.71,2.12,1.36,2.75,4.18,1.39,6.3Zm-25.73,12.66c1.36-2.12,4.18-2.75,6.3-1.39s2.75,4.18,1.39,6.3c-1.36,2.12-4.18,2.75-6.3,1.39s-2.75-4.18-1.39-6.3Z"/>
          <path class="cls-1" d="m413.26,469.39c3.09-1.11,5.3-4.06,5.3-7.54,0-4.43-3.59-8.02-8.02-8.02s-8.02,3.59-8.02,8.02c0,3.7,2.51,6.81,5.92,7.73v10.16l-22.46,15.01v-17.79c3.25-1.02,5.61-4.06,5.61-7.65,0-4.43-3.59-8.02-8.02-8.02s-8.02,3.59-8.02,8.02c0,3.59,2.36,6.63,5.61,7.65v16.14s-13.13-15.55-13.13-15.55v-21.23c3.09-1.11,5.3-4.06,5.3-7.54,0-4.43-3.59-8.02-8.02-8.02s-8.02,3.59-8.02,8.02c0,3.7,2.51,6.81,5.92,7.73v22.8s17.94,21.25,17.94,21.25v6.11h4.81v-5.81s27.27-18.76,27.27-18.76v-12.71Zm-7.28-7.54c0-2.52,2.04-4.56,4.56-4.56s4.56,2.04,4.56,4.56-2.04,4.56-4.56,4.56-4.56-2.04-4.56-4.56Zm-45.21-13.08c0-2.52,2.04-4.56,4.56-4.56s4.56,2.04,4.56,4.56-1.98,4.49-4.45,4.55h-.22c-2.47-.06-4.45-2.07-4.45-4.55Zm18.25,20.54c0-2.52,2.04-4.56,4.56-4.56s4.56,2.04,4.56,4.56-2.04,4.56-4.56,4.56-4.56-2.04-4.56-4.56Z"/>
          <path class="cls-1" d="m297.44,573.05c3.76-2.34,4.92-7.28,2.58-11.04-1.11-1.79-2.82-2.98-4.7-3.5l-1.04-24.77-15.5-17.17h0s-13.66-15.19-13.66-15.19l.09-8.09-4.81-.05-.09,8.39-7.25,7.31-.37,30.59c-.86.19-1.71.52-2.51,1.01-3.76,2.34-4.92,7.28-2.58,11.04,2.34,3.76,7.28,4.92,11.04,2.58,3.76-2.34,4.92-7.28,2.58-11.04-.92-1.48-2.24-2.55-3.73-3.17l.35-29.66,5.29-3.95,11.43,12.7-1.09,21.6c-.79.2-1.56.51-2.29.97-3.76,2.34-4.92,7.28-2.58,11.04,2.34,3.76,7.28,4.92,11.04,2.58,3.76-2.34,4.92-7.28,2.58-11.04-.96-1.55-2.37-2.65-3.95-3.25l.85-16.84,10.44,11.56.97,23c-.53.19-1.04.43-1.53.74-3.76,2.34-4.92,7.28-2.58,11.04,2.34,3.76,7.28,4.92,11.04,2.58Zm-45.44-29.57c.71-.44,1.49-.64,2.27-.67h.54c1.38.14,2.68.87,3.47,2.14,1.33,2.14.67,4.95-1.47,6.28-2.14,1.33-4.95.67-6.28-1.47-1.33-2.14-.67-4.95,1.47-6.28Zm20.99,1.08c.79-.49,1.67-.7,2.53-.68h.11c1.44.08,2.82.83,3.64,2.15,1.33,2.14.67,4.95-1.47,6.28s-4.95.67-6.28-1.47-.67-4.95,1.47-6.28Zm22.63,25.55c-2.14,1.33-4.95.67-6.28-1.47s-.67-4.95,1.47-6.28c2.14-1.33,4.95-.67,6.28,1.47,1.33,2.14.67,4.95-1.47,6.28Z"/>
          <path class="cls-1" d="m398.41,734.7c0-3.59-2.36-6.63-5.61-7.65v-43.87s8.78-5.15,8.78-5.15l15.3,11.2v19.42c-3.25,1.02-5.61,4.06-5.61,7.65,0,4.43,3.59,8.02,8.02,8.02s8.02-3.59,8.02-8.02c0-3.59-2.36-6.63-5.61-7.65v-22.23l-17.74-12.57v-19.69l7.25-8.9,30.06,23.92v11.82c-3.25,1.02-5.61,4.06-5.61,7.65,0,4.43,3.59,8.02,8.02,8.02s8.02-3.59,8.02-8.02c0-3.59-2.36-6.63-5.61-7.65v-14.56l-33.02-25.68v-4.1h0v-22.02s-17.94-21.25-17.94-21.25v-22.63h-4.81v22.33s-18.42,14.34-18.42,14.34v45.26c-3.09,1.11-5.3,4.06-5.3,7.54,0,4.43,3.59,8.02,8.02,8.02s8.02-3.59,8.02-8.02c0-3.7-2.51-6.81-5.92-7.73v-42.71l13.61-10.59v23.74c-3.25,1.02-5.61,4.06-5.61,7.65,0,4.43,3.59,8.02,8.02,8.02s8.02-3.59,8.02-8.02c0-3.59-2.36-6.63-5.61-7.65v-22.08s13.13,15.55,13.13,15.55v21.02s0,0,0,0v3.85l-9.11,11.17v21.44l-11.15,7.03v46.14c-3.26,1.02-5.62,4.06-5.62,7.65,0,4.43,3.59,8.02,8.02,8.02s8.02-3.59,8.02-8.02Zm25.44-18.4c0,2.52-2.04,4.56-4.56,4.56s-4.56-2.04-4.56-4.56,2.04-4.56,4.56-4.56,4.56,2.04,4.56,4.56Zm19.83-32.22c2.52,0,4.56,2.04,4.56,4.56s-2.04,4.56-4.56,4.56-4.56-2.04-4.56-4.56,2.04-4.56,4.56-4.56h0Zm-64.52-23.86c0,2.52-2.04,4.56-4.56,4.56s-4.56-2.04-4.56-4.56,2.04-4.56,4.56-4.56,4.56,2.04,4.56,4.56Zm18.12-29.65c0,2.52-2.04,4.56-4.56,4.56s-4.56-2.04-4.56-4.56,2.04-4.56,4.56-4.56,4.56,2.04,4.56,4.56Zm-11.44,104.12c0-2.52,2.04-4.56,4.56-4.56s4.56,2.04,4.56,4.56-2.04,4.56-4.56,4.56-4.56-2.04-4.56-4.56Z"/>
          <path class="cls-1" d="m415.85,499.07c-3.59,0-6.63,2.36-7.65,5.61h-34.74s-6.54,11.16-6.54,11.16h-21.44l-11.17,9.11h-1.98s-23.43,0-23.43,0l-17.3-21.38-6.05.06,21,26.13h23.14s4.1,0,4.1,0l19.74,24.1h18.98c1.02,3.25,4.06,5.61,7.65,5.61,4.43,0,8.02-3.59,8.02-8.02s-3.59-8.02-8.02-8.02c-3.59,0-6.63,2.36-7.65,5.61h-16.24l-17.97-21.14,8.9-7.25h19.69l6.62,11.79h28.18c1.02,3.25,4.06,5.61,7.65,5.61,4.43,0,8.02-3.59,8.02-8.02s-3.59-8.02-8.02-8.02c-3.59,0-6.63,2.36-7.65,5.61h-25.36l-5.26-9.36,5.15-8.77h31.98c1.02,3.25,4.06,5.61,7.65,5.61,4.43,0,8.02-3.59,8.02-8.02s-3.59-8.02-8.02-8.02Zm-40.25,52.38c0-2.52,2.04-4.56,4.56-4.56s4.56,2.04,4.56,4.56-2.04,4.56-4.56,4.56-4.56-2.04-4.56-4.56h0Zm33.74-25.97c2.52,0,4.56,2.04,4.56,4.56s-2.04,4.56-4.56,4.56-4.56-2.04-4.56-4.56,2.04-4.56,4.56-4.56Zm6.5-13.82c-2.52,0-4.56-2.04-4.56-4.56s2.04-4.56,4.56-4.56,4.56,2.04,4.56,4.56-2.04,4.56-4.56,4.56Z"/>
          <path class="cls-1" d="m461.06,589.15c0-4.43-3.59-8.02-8.02-8.02-3.59,0-6.63,2.36-7.65,5.61h-12.91s-5.15-8.78-5.15-8.78l5.26-9.36h34.28c1.02,3.25,4.06,5.61,7.65,5.61,4.43,0,8.02-3.59,8.02-8.02s-3.59-8.02-8.02-8.02c-3.59,0-6.63,2.36-7.65,5.61h-37.1l-6.62,11.79h-19.69l-8.9-7.25,9.05-15.19h23.71c1.02,3.25,4.06,5.61,7.65,5.61,4.43,0,8.02-3.59,8.02-8.02s-3.59-8.02-8.02-8.02c-3.59,0-6.63,2.36-7.65,5.61h-26.45l-10.82,18.15h-4.1s-23.14,0-23.14,0l-18.02,23.16,6.05.06,14.33-18.41h23.43s1.97,0,1.97,0l11.17,9.11h21.44l6.54,11.15h15.67c1.02,3.26,4.06,5.62,7.65,5.62,4.43,0,8.02-3.59,8.02-8.02Zm-30.65-38.42c0-2.52,2.04-4.56,4.56-4.56s4.56,2.04,4.56,4.56-2.04,4.56-4.56,4.56-4.56-2.04-4.56-4.56h0Zm39.55,15.47c0-2.52,2.04-4.56,4.56-4.56s4.56,2.04,4.56,4.56-2.04,4.56-4.56,4.56-4.56-2.04-4.56-4.56Zm-12.36,22.95c0,2.52-2.04,4.56-4.56,4.56s-4.56-2.04-4.56-4.56,2.04-4.56,4.56-4.56,4.56,2.04,4.56,4.56Z"/>
          <path class="cls-1" d="m267.33,586.54c-1.05-2.92-3.84-5.01-7.12-5.01-4.18,0-7.58,3.39-7.58,7.58s3.39,7.58,7.58,7.58c3.5,0,6.43-2.37,7.31-5.6h29.38l10.01,12.86h-16.81c-.97-3.07-3.84-5.3-7.23-5.3-4.18,0-7.58,3.39-7.58,7.58s3.39,7.58,7.58,7.58c3.39,0,6.26-2.23,7.23-5.3h21.19s-11.72,12.41-11.72,12.41h-20.06c-1.05-2.92-3.84-5.01-7.12-5.01-4.18,0-7.58,3.39-7.58,7.58s3.39,7.58,7.58,7.58c3.5,0,6.43-2.37,7.31-5.6h21.54s17.11-16.95,17.11-16.95h8.75v-4.55h-14.41s-13.55-17.41-13.55-17.41h-31.79Zm-7.12,6.88c-2.38,0-4.31-1.93-4.31-4.31s1.93-4.31,4.31-4.31,4.31,1.93,4.31,4.31-1.93,4.31-4.31,4.31Zm12.17,34.36c-2.38,0-4.31-1.93-4.31-4.31s1.93-4.31,4.31-4.31,4.24,1.87,4.3,4.2v.21c-.06,2.33-1.96,4.2-4.3,4.2Zm10.49-17.25c-2.38,0-4.31-1.93-4.31-4.31s1.93-4.31,4.31-4.31,4.31,1.93,4.31,4.31-1.93,4.31-4.31,4.31Z"/>
          <path class="cls-1" d="m483.96,473.04c2.92-1.05,5.01-3.84,5.01-7.12,0-4.18-3.39-7.58-7.58-7.58s-7.58,3.39-7.58,7.58c0,3.5,2.37,6.43,5.6,7.31v44.25l-18.81,15.95v-25.73c3.07-.97,5.3-3.84,5.3-7.23,0-4.18-3.39-7.58-7.58-7.58s-7.58,3.39-7.58,7.58c0,3.39,2.23,6.26,5.3,7.23v30.11s-18.36-17.67-18.36-17.67v-34.93c2.92-1.05,5.01-3.84,5.01-7.12,0-4.18-3.39-7.58-7.58-7.58s-7.58,3.39-7.58,7.58c0,3.5,2.37,6.43,5.6,7.31v36.41s22.9,23.05,22.9,23.05v21.38h4.55v-27.04s23.35-19.49,23.35-19.49v-46.65Zm-6.88-7.12c0-2.38,1.93-4.31,4.31-4.31s4.31,1.93,4.31,4.31-1.93,4.31-4.31,4.31-4.31-1.93-4.31-4.31Zm-46.25,12.17c0-2.38,1.93-4.31,4.31-4.31s4.31,1.93,4.31,4.31-1.87,4.24-4.2,4.3h-.21c-2.33-.06-4.2-1.96-4.2-4.3Zm23.19,22.38c0-2.38,1.93-4.31,4.31-4.31s4.31,1.93,4.31,4.31-1.93,4.31-4.31,4.31-4.31-1.93-4.31-4.31Z"/>
          <path class="cls-1" d="m317.19,540.48v17.79c-3.25,1.02-5.61,4.06-5.61,7.65,0,4.43,3.59,8.02,8.02,8.02s8.02-3.59,8.02-8.02c0-3.59-2.36-6.63-5.61-7.65v-16.14s13.13,15.55,13.13,15.55v21.02s0,0,0,0v3.85l-9.11,11.17v21.44l-11.15,6.54v15.67c-3.26,1.02-5.62,4.06-5.62,7.65,0,4.43,3.59,8.02,8.02,8.02s8.02-3.59,8.02-8.02c0-3.59-2.36-6.63-5.61-7.65v-12.91s8.78-5.15,8.78-5.15l9.36,5.26v63.87c-3.25,1.02-5.61,4.06-5.61,7.65,0,4.43,3.59,8.02,8.02,8.02s8.02-3.59,8.02-8.02c0-3.59-2.36-6.63-5.61-7.65v-66.68l-11.79-6.62v-19.69l7.25-8.9,15.19,9.05v11.82c-3.25,1.02-5.61,4.06-5.61,7.65,0,4.43,3.59,8.02,8.02,8.02s8.02-3.59,8.02-8.02c0-3.59-2.36-6.63-5.61-7.65v-14.56l-18.15-10.82v-4.1h0v-22.02s-17.94-21.25-17.94-21.25v-6.11h-4.81v5.81s0,6.1,0,6.1Zm27.6,155.62c0,2.52-2.04,4.56-4.56,4.56s-4.56-2.04-4.56-4.56,2.04-4.56,4.56-4.56,4.56,2.04,4.56,4.56Zm10.91-85.59c2.52,0,4.56,2.04,4.56,4.56s-2.04,4.56-4.56,4.56-4.56-2.04-4.56-4.56,2.04-4.56,4.56-4.56h0Zm-31.54-44.59c0,2.52-2.04,4.56-4.56,4.56s-4.56-2.04-4.56-4.56,2.04-4.56,4.56-4.56,4.56,2.04,4.56,4.56Zm-11.44,79.11c0-2.52,2.04-4.56,4.56-4.56s4.56,2.04,4.56,4.56-2.04,4.56-4.56,4.56-4.56-2.04-4.56-4.56Z"/>
        </g>
        <g>
          <path class="cls-1" d="m345.6,494.43c-3.59,0-6.63,2.36-7.65,5.61h-55.69s-8.12-5.8-8.12-5.8l5.26-9.36h38.63c1.02,3.25,4.06,5.61,7.65,5.61,4.43,0,8.02-3.59,8.02-8.02s-3.59-8.02-8.02-8.02c-3.59,0-6.63,2.36-7.65,5.61h-41.45l-6.62,11.79h-19.69l-8.9-7.25,17.97-24.11h29.51c1.02,3.25,4.06,5.61,7.65,5.61,4.43,0,8.02-3.59,8.02-8.02s-3.59-8.02-8.02-8.02c-3.59,0-6.63,2.36-7.65,5.61h-32.25l-19.74,27.07h-4.1s-22.02,0-22.02,0l-21.25,17.95h-6.11v4.81h5.81s14.34,18.42,14.34,18.42h25.97c1.11,3.09,4.06,5.3,7.54,5.3,4.43,0,8.02-3.59,8.02-8.02s-3.59-8.02-8.02-8.02c-3.7,0-6.81,2.51-7.73,5.92h-23.43l-10.59-13.61h22.22c1.02,3.25,4.06,5.61,7.65,5.61,4.43,0,8.02-3.59,8.02-8.02s-3.59-8.02-8.02-8.02c-3.59,0-6.63,2.36-7.65,5.61h-20.56s15.55-13.13,15.55-13.13h21.02s0,0,0,0h3.85l11.17,9.11h21.44l9.51,8.18h58.45c1.02,3.26,4.06,5.62,7.65,5.62,4.43,0,8.02-3.59,8.02-8.02s-3.59-8.02-8.02-8.02Zm-19.92-16.52c2.52,0,4.56,2.04,4.56,4.56s-2.04,4.56-4.56,4.56-4.56-2.04-4.56-4.56,2.04-4.56,4.56-4.56Zm-33.74-19.83c0-2.52,2.04-4.56,4.56-4.56s4.56,2.04,4.56,4.56-2.04,4.56-4.56,4.56-4.56-2.04-4.56-4.56h0Zm-54.89,58.58c2.52,0,4.56,2.04,4.56,4.56s-2.04,4.56-4.56,4.56-4.56-2.04-4.56-4.56,2.04-4.56,4.56-4.56Zm-11.88-18.12c2.52,0,4.56,2.04,4.56,4.56s-2.04,4.56-4.56,4.56-4.56-2.04-4.56-4.56,2.04-4.56,4.56-4.56Zm120.44,8.47c-2.52,0-4.56-2.04-4.56-4.56s2.04-4.56,4.56-4.56,4.56,2.04,4.56,4.56-2.04,4.56-4.56,4.56Z"/>
          <path class="cls-1" d="m194.94,597.38c2.38-3.73,1.29-8.69-2.44-11.07-.49-.31-1-.56-1.53-.76l1.26-22.99,10.59-11.43.63,16.85c-1.59.58-3.01,1.66-3.99,3.2-2.38,3.73-1.29,8.69,2.44,11.07,3.73,2.38,8.69,1.29,11.07-2.44s1.29-8.69-2.44-11.07c-.72-.46-1.49-.79-2.28-1l-.81-21.61,11.59-12.56,11.18,12.9.18,42.93c-1.5.6-2.84,1.65-3.77,3.12-2.38,3.73-1.29,8.69,2.44,11.07s8.69,1.29,11.07-2.44c2.38-3.73,1.29-8.69-2.44-11.07-.79-.5-1.63-.84-2.49-1.04l-.19-43.86-13.1-16.28.02-8.39h-4.81s-.02,8.08-.02,8.08l-13.85,15.01h0s-15.72,16.97-15.72,16.97l-1.36,24.75c-1.89.49-3.61,1.66-4.74,3.44-2.38,3.73-1.29,8.69,2.44,11.07,3.73,2.38,8.69,1.29,11.07-2.44Zm42.29,1.91c-1.36,2.12-4.18,2.75-6.3,1.39-2.12-1.36-2.75-4.18-1.39-6.3.8-1.26,2.12-1.97,3.5-2.08h.54c.78.02,1.56.24,2.27.69,2.12,1.36,2.75,4.18,1.39,6.3Zm-27.16-21.34c-1.36,2.12-4.18,2.75-6.3,1.39s-2.75-4.18-1.39-6.3c.84-1.31,2.23-2.04,3.67-2.1h.11c.86-.02,1.74.21,2.52.71,2.12,1.36,2.75,4.18,1.39,6.3Zm-25.73,12.66c1.36-2.12,4.18-2.75,6.3-1.39s2.75,4.18,1.39,6.3c-1.36,2.12-4.18,2.75-6.3,1.39s-2.75-4.18-1.39-6.3Z"/>
          <path class="cls-1" d="m113.26,469.39c3.09-1.11,5.3-4.06,5.3-7.54,0-4.43-3.59-8.02-8.02-8.02s-8.02,3.59-8.02,8.02c0,3.7,2.51,6.81,5.92,7.73v10.16l-22.46,15.01v-17.79c3.25-1.02,5.61-4.06,5.61-7.65,0-4.43-3.59-8.02-8.02-8.02s-8.02,3.59-8.02,8.02c0,3.59,2.36,6.63,5.61,7.65v16.14s-13.13-15.55-13.13-15.55v-21.23c3.09-1.11,5.3-4.06,5.3-7.54,0-4.43-3.59-8.02-8.02-8.02s-8.02,3.59-8.02,8.02c0,3.7,2.51,6.81,5.92,7.73v22.8s17.94,21.25,17.94,21.25v6.11h4.81v-5.81s27.27-18.76,27.27-18.76v-12.71Zm-7.28-7.54c0-2.52,2.04-4.56,4.56-4.56s4.56,2.04,4.56,4.56-2.04,4.56-4.56,4.56-4.56-2.04-4.56-4.56Zm-45.21-13.08c0-2.52,2.04-4.56,4.56-4.56s4.56,2.04,4.56,4.56-1.98,4.49-4.45,4.55h-.22c-2.47-.06-4.45-2.07-4.45-4.55Zm18.25,20.54c0-2.52,2.04-4.56,4.56-4.56s4.56,2.04,4.56,4.56-2.04,4.56-4.56,4.56-4.56-2.04-4.56-4.56Z"/>
          <path class="cls-1" d="m-2.56,573.05c3.76-2.34,4.92-7.28,2.58-11.04-1.11-1.79-2.82-2.98-4.7-3.5l-1.04-24.77-15.5-17.17h0s-13.66-15.19-13.66-15.19l.09-8.09-4.81-.05-.09,8.39-7.25,7.31-.37,30.59c-.86.19-1.71.52-2.51,1.01-3.76,2.34-4.92,7.28-2.58,11.04,2.34,3.76,7.28,4.92,11.04,2.58,3.76-2.34,4.92-7.28,2.58-11.04-.92-1.48-2.24-2.55-3.73-3.17l.35-29.66,5.29-3.95,11.43,12.7-1.09,21.6c-.79.2-1.56.51-2.29.97-3.76,2.34-4.92,7.28-2.58,11.04,2.34,3.76,7.28,4.92,11.04,2.58,3.76-2.34,4.92-7.28,2.58-11.04-.96-1.55-2.37-2.65-3.95-3.25l.85-16.84,10.44,11.56.97,23c-.53.19-1.04.43-1.53.74-3.76,2.34-4.92,7.28-2.58,11.04,2.34,3.76,7.28,4.92,11.04,2.58Zm-45.44-29.57c.71-.44,1.49-.64,2.27-.67h.54c1.38.14,2.68.87,3.47,2.14,1.33,2.14.67,4.95-1.47,6.28-2.14,1.33-4.95.67-6.28-1.47-1.33-2.14-.67-4.95,1.47-6.28Zm20.99,1.08c.79-.49,1.67-.7,2.53-.68h.11c1.44.08,2.82.83,3.64,2.15,1.33,2.14.67,4.95-1.47,6.28s-4.95.67-6.28-1.47-.67-4.95,1.47-6.28Zm22.63,25.55c-2.14,1.33-4.95.67-6.28-1.47s-.67-4.95,1.47-6.28c2.14-1.33,4.95-.67,6.28,1.47,1.33,2.14.67,4.95-1.47,6.28Z"/>
          <path class="cls-1" d="m98.41,734.7c0-3.59-2.36-6.63-5.61-7.65v-43.87s8.78-5.15,8.78-5.15l15.3,11.2v19.42c-3.25,1.02-5.61,4.06-5.61,7.65,0,4.43,3.59,8.02,8.02,8.02s8.02-3.59,8.02-8.02c0-3.59-2.36-6.63-5.61-7.65v-22.23l-17.74-12.57v-19.69l7.25-8.9,30.06,23.92v11.82c-3.25,1.02-5.61,4.06-5.61,7.65,0,4.43,3.59,8.02,8.02,8.02s8.02-3.59,8.02-8.02c0-3.59-2.36-6.63-5.61-7.65v-14.56l-33.02-25.68v-4.1h0v-22.02s-17.94-21.25-17.94-21.25v-22.63h-4.81v22.33s-18.42,14.34-18.42,14.34v45.26c-3.09,1.11-5.3,4.06-5.3,7.54,0,4.43,3.59,8.02,8.02,8.02s8.02-3.59,8.02-8.02c0-3.7-2.51-6.81-5.92-7.73v-42.71l13.61-10.59v23.74c-3.25,1.02-5.61,4.06-5.61,7.65,0,4.43,3.59,8.02,8.02,8.02s8.02-3.59,8.02-8.02c0-3.59-2.36-6.63-5.61-7.65v-22.08s13.13,15.55,13.13,15.55v21.02s0,0,0,0v3.85l-9.11,11.17v21.44l-11.15,7.03v46.14c-3.26,1.02-5.62,4.06-5.62,7.65,0,4.43,3.59,8.02,8.02,8.02s8.02-3.59,8.02-8.02Zm25.44-18.4c0,2.52-2.04,4.56-4.56,4.56s-4.56-2.04-4.56-4.56,2.04-4.56,4.56-4.56,4.56,2.04,4.56,4.56Zm19.83-32.22c2.52,0,4.56,2.04,4.56,4.56s-2.04,4.56-4.56,4.56-4.56-2.04-4.56-4.56,2.04-4.56,4.56-4.56h0Zm-64.52-23.86c0,2.52-2.04,4.56-4.56,4.56s-4.56-2.04-4.56-4.56,2.04-4.56,4.56-4.56,4.56,2.04,4.56,4.56Zm18.12-29.65c0,2.52-2.04,4.56-4.56,4.56s-4.56-2.04-4.56-4.56,2.04-4.56,4.56-4.56,4.56,2.04,4.56,4.56Zm-11.44,104.12c0-2.52,2.04-4.56,4.56-4.56s4.56,2.04,4.56,4.56-2.04,4.56-4.56,4.56-4.56-2.04-4.56-4.56Z"/>
          <path class="cls-1" d="m115.85,499.07c-3.59,0-6.63,2.36-7.65,5.61h-34.74s-6.54,11.16-6.54,11.16h-21.44l-11.17,9.11h-1.98s-23.43,0-23.43,0l-17.3-21.38-6.05.06,21,26.13h23.14s4.1,0,4.1,0l19.74,24.1h18.98c1.02,3.25,4.06,5.61,7.65,5.61,4.43,0,8.02-3.59,8.02-8.02s-3.59-8.02-8.02-8.02c-3.59,0-6.63,2.36-7.65,5.61h-16.24l-17.97-21.14,8.9-7.25h19.69l6.62,11.79h28.18c1.02,3.25,4.06,5.61,7.65,5.61,4.43,0,8.02-3.59,8.02-8.02s-3.59-8.02-8.02-8.02c-3.59,0-6.63,2.36-7.65,5.61h-25.36l-5.26-9.36,5.15-8.77h31.98c1.02,3.25,4.06,5.61,7.65,5.61,4.43,0,8.02-3.59,8.02-8.02s-3.59-8.02-8.02-8.02Zm-40.25,52.38c0-2.52,2.04-4.56,4.56-4.56s4.56,2.04,4.56,4.56-2.04,4.56-4.56,4.56-4.56-2.04-4.56-4.56h0Zm33.74-25.97c2.52,0,4.56,2.04,4.56,4.56s-2.04,4.56-4.56,4.56-4.56-2.04-4.56-4.56,2.04-4.56,4.56-4.56Zm6.5-13.82c-2.52,0-4.56-2.04-4.56-4.56s2.04-4.56,4.56-4.56,4.56,2.04,4.56,4.56-2.04,4.56-4.56,4.56Z"/>
          <path class="cls-1" d="m161.06,589.15c0-4.43-3.59-8.02-8.02-8.02-3.59,0-6.63,2.36-7.65,5.61h-12.91s-5.15-8.78-5.15-8.78l5.26-9.36h34.28c1.02,3.25,4.06,5.61,7.65,5.61,4.43,0,8.02-3.59,8.02-8.02s-3.59-8.02-8.02-8.02c-3.59,0-6.63,2.36-7.65,5.61h-37.1l-6.62,11.79h-19.69l-8.9-7.25,9.05-15.19h23.71c1.02,3.25,4.06,5.61,7.65,5.61,4.43,0,8.02-3.59,8.02-8.02s-3.59-8.02-8.02-8.02c-3.59,0-6.63,2.36-7.65,5.61h-26.45l-10.82,18.15h-4.1s-23.14,0-23.14,0l-18.02,23.16,6.05.06,14.33-18.41h23.43s1.97,0,1.97,0l11.17,9.11h21.44l6.54,11.15h15.67c1.02,3.26,4.06,5.62,7.65,5.62,4.43,0,8.02-3.59,8.02-8.02Zm-30.65-38.42c0-2.52,2.04-4.56,4.56-4.56s4.56,2.04,4.56,4.56-2.04,4.56-4.56,4.56-4.56-2.04-4.56-4.56h0Zm39.55,15.47c0-2.52,2.04-4.56,4.56-4.56s4.56,2.04,4.56,4.56-2.04,4.56-4.56,4.56-4.56-2.04-4.56-4.56Zm-12.36,22.95c0,2.52-2.04,4.56-4.56,4.56s-4.56-2.04-4.56-4.56,2.04-4.56,4.56-4.56,4.56,2.04,4.56,4.56Z"/>
          <path class="cls-1" d="m-32.67,586.54c-1.05-2.92-3.84-5.01-7.12-5.01-4.18,0-7.58,3.39-7.58,7.58s3.39,7.58,7.58,7.58c3.5,0,6.43-2.37,7.31-5.6H-3.11l10.01,12.86H-9.91c-.97-3.07-3.84-5.3-7.23-5.3-4.18,0-7.58,3.39-7.58,7.58s3.39,7.58,7.58,7.58c3.39,0,6.26-2.23,7.23-5.3H11.28s-11.72,12.41-11.72,12.41h-20.06c-1.05-2.92-3.84-5.01-7.12-5.01-4.18,0-7.58,3.39-7.58,7.58s3.39,7.58,7.58,7.58c3.5,0,6.43-2.37,7.31-5.6H1.22s17.11-16.95,17.11-16.95h8.75v-4.55h-14.41s-13.55-17.41-13.55-17.41h-31.79Zm-7.12,6.88c-2.38,0-4.31-1.93-4.31-4.31s1.93-4.31,4.31-4.31,4.31,1.93,4.31,4.31-1.93,4.31-4.31,4.31Zm12.17,34.36c-2.38,0-4.31-1.93-4.31-4.31s1.93-4.31,4.31-4.31,4.24,1.87,4.3,4.2v.21c-.06,2.33-1.96,4.2-4.3,4.2Zm10.49-17.25c-2.38,0-4.31-1.93-4.31-4.31s1.93-4.31,4.31-4.31,4.31,1.93,4.31,4.31-1.93,4.31-4.31,4.31Z"/>
          <path class="cls-1" d="m183.96,473.04c2.92-1.05,5.01-3.84,5.01-7.12,0-4.18-3.39-7.58-7.58-7.58s-7.58,3.39-7.58,7.58c0,3.5,2.37,6.43,5.6,7.31v44.25l-18.81,15.95v-25.73c3.07-.97,5.3-3.84,5.3-7.23,0-4.18-3.39-7.58-7.58-7.58s-7.58,3.39-7.58,7.58c0,3.39,2.23,6.26,5.3,7.23v30.11s-18.36-17.67-18.36-17.67v-34.93c2.92-1.05,5.01-3.84,5.01-7.12,0-4.18-3.39-7.58-7.58-7.58s-7.58,3.39-7.58,7.58c0,3.5,2.37,6.43,5.6,7.31v36.41s22.9,23.05,22.9,23.05v21.38h4.55v-27.04s23.35-19.49,23.35-19.49v-46.65Zm-6.88-7.12c0-2.38,1.93-4.31,4.31-4.31s4.31,1.93,4.31,4.31-1.93,4.31-4.31,4.31-4.31-1.93-4.31-4.31Zm-46.25,12.17c0-2.38,1.93-4.31,4.31-4.31s4.31,1.93,4.31,4.31-1.87,4.24-4.2,4.3h-.21c-2.33-.06-4.2-1.96-4.2-4.3Zm23.19,22.38c0-2.38,1.93-4.31,4.31-4.31s4.31,1.93,4.31,4.31-1.93,4.31-4.31,4.31-4.31-1.93-4.31-4.31Z"/>
          <path class="cls-1" d="m17.19,540.48v17.79c-3.25,1.02-5.61,4.06-5.61,7.65,0,4.43,3.59,8.02,8.02,8.02s8.02-3.59,8.02-8.02c0-3.59-2.36-6.63-5.61-7.65v-16.14s13.13,15.55,13.13,15.55v21.02s0,0,0,0v3.85l-9.11,11.17v21.44l-11.15,6.54v15.67c-3.26,1.02-5.62,4.06-5.62,7.65,0,4.43,3.59,8.02,8.02,8.02s8.02-3.59,8.02-8.02c0-3.59-2.36-6.63-5.61-7.65v-12.91s8.78-5.15,8.78-5.15l9.36,5.26v63.87c-3.25,1.02-5.61,4.06-5.61,7.65,0,4.43,3.59,8.02,8.02,8.02s8.02-3.59,8.02-8.02c0-3.59-2.36-6.63-5.61-7.65v-66.68l-11.79-6.62v-19.69l7.25-8.9,15.19,9.05v11.82c-3.25,1.02-5.61,4.06-5.61,7.65,0,4.43,3.59,8.02,8.02,8.02s8.02-3.59,8.02-8.02c0-3.59-2.36-6.63-5.61-7.65v-14.56l-18.15-10.82v-4.1h0v-22.02s-17.94-21.25-17.94-21.25v-6.11h-4.81v5.81s0,6.1,0,6.1Zm27.6,155.62c0,2.52-2.04,4.56-4.56,4.56s-4.56-2.04-4.56-4.56,2.04-4.56,4.56-4.56,4.56,2.04,4.56,4.56Zm10.91-85.59c2.52,0,4.56,2.04,4.56,4.56s-2.04,4.56-4.56,4.56-4.56-2.04-4.56-4.56,2.04-4.56,4.56-4.56h0Zm-31.54-44.59c0,2.52-2.04,4.56-4.56,4.56s-4.56-2.04-4.56-4.56,2.04-4.56,4.56-4.56,4.56,2.04,4.56,4.56Zm-11.44,79.11c0-2.52,2.04-4.56,4.56-4.56s4.56,2.04,4.56,4.56-2.04,4.56-4.56,4.56-4.56-2.04-4.56-4.56Z"/>
        </g>
        <path class="cls-1" d="m45.6,494.43c-3.59,0-6.63,2.36-7.65,5.61H-17.74s-8.12-5.8-8.12-5.8l5.26-9.36H18.03c1.02,3.25,4.06,5.61,7.65,5.61,4.43,0,8.02-3.59,8.02-8.02s-3.59-8.02-8.02-8.02c-3.59,0-6.63,2.36-7.65,5.61H-23.42l-6.62,11.79h-19.69l-8.9-7.25,17.97-24.11H-11.15c1.02,3.25,4.06,5.61,7.65,5.61,4.43,0,8.02-3.59,8.02-8.02s-3.59-8.02-8.02-8.02c-3.59,0-6.63,2.36-7.65,5.61h-32.25l-19.74,27.07h-4.1s-22.02,0-22.02,0l-21.25,17.95h-6.11v4.81h5.81s14.34,18.42,14.34,18.42h25.97c1.11,3.09,4.06,5.3,7.54,5.3,4.43,0,8.02-3.59,8.02-8.02s-3.59-8.02-8.02-8.02c-3.7,0-6.81,2.51-7.73,5.92h-23.43l-10.59-13.61h22.22c1.02,3.25,4.06,5.61,7.65,5.61,4.43,0,8.02-3.59,8.02-8.02s-3.59-8.02-8.02-8.02c-3.59,0-6.63,2.36-7.65,5.61h-20.56s15.55-13.13,15.55-13.13h21.02s0,0,0,0h3.85l11.17,9.11h21.44l9.51,8.18h58.45c1.02,3.26,4.06,5.62,7.65,5.62,4.43,0,8.02-3.59,8.02-8.02s-3.59-8.02-8.02-8.02Zm-19.92-16.52c2.52,0,4.56,2.04,4.56,4.56s-2.04,4.56-4.56,4.56-4.56-2.04-4.56-4.56,2.04-4.56,4.56-4.56Zm-33.74-19.83c0-2.52,2.04-4.56,4.56-4.56s4.56,2.04,4.56,4.56-2.04,4.56-4.56,4.56-4.56-2.04-4.56-4.56h0Zm-54.89,58.58c2.52,0,4.56,2.04,4.56,4.56s-2.04,4.56-4.56,4.56-4.56-2.04-4.56-4.56,2.04-4.56,4.56-4.56Zm-11.88-18.12c2.52,0,4.56,2.04,4.56,4.56s-2.04,4.56-4.56,4.56-4.56-2.04-4.56-4.56,2.04-4.56,4.56-4.56Zm120.44,8.47c-2.52,0-4.56-2.04-4.56-4.56s2.04-4.56,4.56-4.56,4.56,2.04,4.56,4.56-2.04,4.56-4.56,4.56Z"/>
        <g>
          <path class="cls-1" d="m563.26,169.39c3.09-1.11,5.3-4.06,5.3-7.54,0-4.43-3.59-8.02-8.02-8.02s-8.02,3.59-8.02,8.02c0,3.7,2.51,6.81,5.92,7.73v10.16l-22.46,15.01v-17.79c3.25-1.02,5.61-4.06,5.61-7.65,0-4.43-3.59-8.02-8.02-8.02s-8.02,3.59-8.02,8.02c0,3.59,2.36,6.63,5.61,7.65v16.14s-13.13-15.55-13.13-15.55v-21.23c3.09-1.11,5.3-4.06,5.3-7.54,0-4.43-3.59-8.02-8.02-8.02s-8.02,3.59-8.02,8.02c0,3.7,2.51,6.81,5.92,7.73v22.8s17.94,21.25,17.94,21.25v6.11h4.81v-5.81s27.27-18.76,27.27-18.76v-12.71Zm-7.28-7.54c0-2.52,2.04-4.56,4.56-4.56s4.56,2.04,4.56,4.56-2.04,4.56-4.56,4.56-4.56-2.04-4.56-4.56Zm-45.21-13.08c0-2.52,2.04-4.56,4.56-4.56s4.56,2.04,4.56,4.56-1.98,4.49-4.45,4.55h-.22c-2.47-.06-4.45-2.07-4.45-4.55Zm18.25,20.54c0-2.52,2.04-4.56,4.56-4.56s4.56,2.04,4.56,4.56-2.04,4.56-4.56,4.56-4.56-2.04-4.56-4.56Z"/>
          <path class="cls-1" d="m623.61,357.48c1.11,3.09,4.06,5.3,7.54,5.3,4.43,0,8.02-3.59,8.02-8.02s-3.59-8.02-8.02-8.02c-3.7,0-6.81,2.51-7.73,5.92h-10.16l-20.96-19.49h65.36c1.02,3.25,4.06,5.61,7.65,5.61,4.43,0,8.02-3.59,8.02-8.02s-3.59-8.02-8.02-8.02c-3.59,0-6.63,2.36-7.65,5.61h-78.57s15.55-13.13,15.55-13.13h21.23c1.11,3.09,4.06,5.3,7.54,5.3,4.43,0,8.02-3.59,8.02-8.02s-3.59-8.02-8.02-8.02c-3.7,0-6.81,2.51-7.73,5.92h-22.8s-21.25,17.94-21.25,17.94h-9.08v4.81h22.2s26.16,24.3,26.16,24.3h12.71Zm7.54-7.28c2.52,0,4.56,2.04,4.56,4.56s-2.04,4.56-4.56,4.56-4.56-2.04-4.56-4.56,2.04-4.56,4.56-4.56Zm-7.73-42.24c2.52,0,4.56,2.04,4.56,4.56s-2.04,4.56-4.56,4.56-4.49-1.98-4.55-4.45v-.22c.06-2.47,2.07-4.45,4.55-4.45Zm41.9,18.25c2.52,0,4.56,2.04,4.56,4.56s-2.04,4.56-4.56,4.56-4.56-2.04-4.56-4.56,2.04-4.56,4.56-4.56Z"/>
          <path class="cls-1" d="m447.44,273.05c3.76-2.34,4.92-7.28,2.58-11.04-1.11-1.79-2.82-2.98-4.7-3.5l-1.04-24.77-15.5-17.17h0s-13.66-15.19-13.66-15.19l.09-8.09-4.81-.05-.09,8.39-7.25,7.31-.37,30.59c-.86.19-1.71.52-2.51,1.01-3.76,2.34-4.92,7.28-2.58,11.04,2.34,3.76,7.28,4.92,11.04,2.58,3.76-2.34,4.92-7.28,2.58-11.04-.92-1.48-2.24-2.55-3.73-3.17l.35-29.66,5.29-3.95,11.43,12.7-1.09,21.6c-.79.2-1.56.51-2.29.97-3.76,2.34-4.92,7.28-2.58,11.04,2.34,3.76,7.28,4.92,11.04,2.58,3.76-2.34,4.92-7.28,2.58-11.04-.96-1.55-2.37-2.65-3.95-3.25l.85-16.84,10.44,11.56.97,23c-.53.19-1.04.43-1.53.74-3.76,2.34-4.92,7.28-2.58,11.04,2.34,3.76,7.28,4.92,11.04,2.58Zm-45.44-29.57c.71-.44,1.49-.64,2.27-.67h.54c1.38.14,2.68.87,3.47,2.14,1.33,2.14.67,4.95-1.47,6.28s-4.95.67-6.28-1.47c-1.33-2.14-.67-4.95,1.47-6.28Zm20.99,1.08c.79-.49,1.67-.7,2.53-.68h.11c1.44.08,2.82.83,3.64,2.15,1.33,2.14.67,4.95-1.47,6.28s-4.95.67-6.28-1.47-.67-4.95,1.47-6.28Zm22.63,25.55c-2.14,1.33-4.95.67-6.28-1.47s-.67-4.95,1.47-6.28c2.14-1.33,4.95-.67,6.28,1.47,1.33,2.14.67,4.95-1.47,6.28Z"/>
          <path class="cls-1" d="m548.41,434.7c0-3.59-2.36-6.63-5.61-7.65v-43.87s8.78-5.15,8.78-5.15l15.3,11.2v19.42c-3.25,1.02-5.61,4.06-5.61,7.65,0,4.43,3.59,8.02,8.02,8.02s8.02-3.59,8.02-8.02c0-3.59-2.36-6.63-5.61-7.65v-22.23l-17.74-12.57v-19.69l7.25-8.9,30.06,23.92v11.82c-3.25,1.02-5.61,4.06-5.61,7.65,0,4.43,3.59,8.02,8.02,8.02s8.02-3.59,8.02-8.02c0-3.59-2.36-6.63-5.61-7.65v-14.56l-33.02-25.68v-4.1h0v-22.02s-17.94-21.25-17.94-21.25v-22.63h-4.81v22.33s-18.42,14.34-18.42,14.34v45.26c-3.09,1.11-5.3,4.06-5.3,7.54,0,4.43,3.59,8.02,8.02,8.02s8.02-3.59,8.02-8.02c0-3.7-2.51-6.81-5.92-7.73v-42.71l13.61-10.59v23.74c-3.25,1.02-5.61,4.06-5.61,7.65,0,4.43,3.59,8.02,8.02,8.02s8.02-3.59,8.02-8.02c0-3.59-2.36-6.63-5.61-7.65v-22.08s13.13,15.55,13.13,15.55v21.02s0,0,0,0v3.85l-9.11,11.17v21.44l-11.15,7.03v46.14c-3.26,1.02-5.62,4.06-5.62,7.65,0,4.43,3.59,8.02,8.02,8.02s8.02-3.59,8.02-8.02Zm25.44-18.4c0,2.52-2.04,4.56-4.56,4.56s-4.56-2.04-4.56-4.56,2.04-4.56,4.56-4.56,4.56,2.04,4.56,4.56Zm19.83-32.22c2.52,0,4.56,2.04,4.56,4.56s-2.04,4.56-4.56,4.56-4.56-2.04-4.56-4.56,2.04-4.56,4.56-4.56h0Zm-64.52-23.86c0,2.52-2.04,4.56-4.56,4.56s-4.56-2.04-4.56-4.56,2.04-4.56,4.56-4.56,4.56,2.04,4.56,4.56Zm18.12-29.65c0,2.52-2.04,4.56-4.56,4.56s-4.56-2.04-4.56-4.56,2.04-4.56,4.56-4.56,4.56,2.04,4.56,4.56Zm-11.44,104.12c0-2.52,2.04-4.56,4.56-4.56s4.56,2.04,4.56,4.56-2.04,4.56-4.56,4.56-4.56-2.04-4.56-4.56Z"/>
          <path class="cls-1" d="m565.85,199.07c-3.59,0-6.63,2.36-7.65,5.61h-34.74s-6.54,11.16-6.54,11.16h-21.44l-11.17,9.11h-1.98s-23.43,0-23.43,0l-17.3-21.38-6.05.06,21,26.13h23.14s4.1,0,4.1,0l19.74,24.1h18.98c1.02,3.25,4.06,5.61,7.65,5.61,4.43,0,8.02-3.59,8.02-8.02s-3.59-8.02-8.02-8.02c-3.59,0-6.63,2.36-7.65,5.61h-16.24l-17.97-21.14,8.9-7.25h19.69l6.62,11.79h28.18c1.02,3.25,4.06,5.61,7.65,5.61,4.43,0,8.02-3.59,8.02-8.02s-3.59-8.02-8.02-8.02c-3.59,0-6.63,2.36-7.65,5.61h-25.36l-5.26-9.36,5.15-8.77h31.98c1.02,3.25,4.06,5.61,7.65,5.61,4.43,0,8.02-3.59,8.02-8.02s-3.59-8.02-8.02-8.02Zm-40.25,52.38c0-2.52,2.04-4.56,4.56-4.56s4.56,2.04,4.56,4.56-2.04,4.56-4.56,4.56-4.56-2.04-4.56-4.56h0Zm33.74-25.97c2.52,0,4.56,2.04,4.56,4.56s-2.04,4.56-4.56,4.56-4.56-2.04-4.56-4.56,2.04-4.56,4.56-4.56Zm6.5-13.82c-2.52,0-4.56-2.04-4.56-4.56s2.04-4.56,4.56-4.56,4.56,2.04,4.56,4.56-2.04,4.56-4.56,4.56Z"/>
          <path class="cls-1" d="m611.06,289.15c0-4.43-3.59-8.02-8.02-8.02-3.59,0-6.63,2.36-7.65,5.61h-12.91s-5.15-8.78-5.15-8.78l5.26-9.36h34.28c1.02,3.25,4.06,5.61,7.65,5.61,4.43,0,8.02-3.59,8.02-8.02s-3.59-8.02-8.02-8.02c-3.59,0-6.63,2.36-7.65,5.61h-37.1l-6.62,11.79h-19.69l-8.9-7.25,9.05-15.19h23.71c1.02,3.25,4.06,5.61,7.65,5.61,4.43,0,8.02-3.59,8.02-8.02s-3.59-8.02-8.02-8.02c-3.59,0-6.63,2.36-7.65,5.61h-26.45l-10.82,18.15h-4.1s-23.14,0-23.14,0l-18.02,23.16,6.05.06,14.33-18.41h23.43s1.97,0,1.97,0l11.17,9.11h21.44l6.54,11.15h15.67c1.02,3.26,4.06,5.62,7.65,5.62,4.43,0,8.02-3.59,8.02-8.02Zm-30.65-38.42c0-2.52,2.04-4.56,4.56-4.56s4.56,2.04,4.56,4.56-2.04,4.56-4.56,4.56-4.56-2.04-4.56-4.56h0Zm39.55,15.47c0-2.52,2.04-4.56,4.56-4.56s4.56,2.04,4.56,4.56-2.04,4.56-4.56,4.56-4.56-2.04-4.56-4.56Zm-12.36,22.95c0,2.52-2.04,4.56-4.56,4.56s-4.56-2.04-4.56-4.56,2.04-4.56,4.56-4.56,4.56,2.04,4.56,4.56Z"/>
          <path class="cls-1" d="m472.42,429.74c0-3.59-2.36-6.63-5.61-7.65v-15.67s-11.16-6.54-11.16-6.54v-21.44s-9.11-11.17-9.11-11.17v-1.97h0v-23.43s18.41-14.33,18.41-14.33l-.06-6.05-23.16,18.02v23.14h0v4.1s-18.15,10.82-18.15,10.82v26.45c-3.25,1.02-5.61,4.06-5.61,7.65,0,4.43,3.59,8.02,8.02,8.02,4.43,0,8.02-3.59,8.02-8.02,0-3.59-2.36-6.63-5.61-7.65v-23.71s15.19-9.05,15.19-9.05l7.25,8.9v19.69s-11.79,6.62-11.79,6.62v37.1c-3.25,1.02-5.61,4.06-5.61,7.65,0,4.43,3.59,8.02,8.02,8.02,4.43,0,8.02-3.59,8.02-8.02,0-3.59-2.36-6.63-5.61-7.65v-34.28s9.36-5.26,9.36-5.26l8.77,5.15v12.91c-3.25,1.02-5.61,4.06-5.61,7.65,0,4.43,3.59,8.02,8.02,8.02,4.43,0,8.02-3.59,8.02-8.02Zm-46.43-22.63c2.52,0,4.56,2.04,4.56,4.56s-2.04,4.56-4.56,4.56c-2.52,0-4.56-2.04-4.56-4.56s2.04-4.56,4.56-4.56h0Zm20.03,44.11c0,2.52-2.04,4.56-4.56,4.56-2.52,0-4.56-2.04-4.56-4.56s2.04-4.56,4.56-4.56,4.56,2.04,4.56,4.56Zm13.82-21.48c0-2.52,2.04-4.56,4.56-4.56,2.52,0,4.56,2.04,4.56,4.56s-2.04,4.56-4.56,4.56c-2.52,0-4.56-2.04-4.56-4.56Z"/>
          <path class="cls-1" d="m417.33,286.54c-1.05-2.92-3.84-5.01-7.12-5.01-4.18,0-7.58,3.39-7.58,7.58s3.39,7.58,7.58,7.58c3.5,0,6.43-2.37,7.31-5.6h29.38l10.01,12.86h-16.81c-.97-3.07-3.84-5.3-7.23-5.3-4.18,0-7.58,3.39-7.58,7.58s3.39,7.58,7.58,7.58c3.39,0,6.26-2.23,7.23-5.3h21.19s-11.72,12.41-11.72,12.41h-20.06c-1.05-2.92-3.84-5.01-7.12-5.01-4.18,0-7.58,3.39-7.58,7.58s3.39,7.58,7.58,7.58c3.5,0,6.43-2.37,7.31-5.6h21.54s17.11-16.95,17.11-16.95h8.75v-4.55h-14.41s-13.55-17.41-13.55-17.41h-31.79Zm-7.12,6.88c-2.38,0-4.31-1.93-4.31-4.31s1.93-4.31,4.31-4.31,4.31,1.93,4.31,4.31-1.93,4.31-4.31,4.31Zm12.17,34.36c-2.38,0-4.31-1.93-4.31-4.31s1.93-4.31,4.31-4.31,4.24,1.87,4.3,4.2v.21c-.06,2.33-1.96,4.2-4.3,4.2Zm10.49-17.25c-2.38,0-4.31-1.93-4.31-4.31s1.93-4.31,4.31-4.31,4.31,1.93,4.31,4.31-1.93,4.31-4.31,4.31Z"/>
          <path class="cls-1" d="m537.99,380.9l-26.89,17.8v34.76c-2.92,1.05-5.01,3.84-5.01,7.12,0,4.18,3.39,7.58,7.58,7.58s7.58-3.39,7.58-7.58c0-3.5-2.37-6.43-5.6-7.31v-32.36l23.21-15.09m-20.88,54.75c0,2.38-1.93,4.31-4.31,4.31s-4.31-1.93-4.31-4.31,1.93-4.31,4.31-4.31,4.31,1.93,4.31,4.31Z"/>
          <path class="cls-1" d="m512.85,401.01l-26.89,17.8v10.98c-2.92,1.05-5.01,3.84-5.01,7.12,0,4.18,3.39,7.58,7.58,7.58s7.58-3.39,7.58-7.58c0-3.5-2.37-6.43-5.6-7.31v-8.57l23.21-15.09m-20.88,30.96c0,2.38-1.93,4.31-4.31,4.31s-4.31-1.93-4.31-4.31,1.93-4.31,4.31-4.31,4.31,1.93,4.31,4.31Z"/>
          <path class="cls-1" d="m633.96,173.04c2.92-1.05,5.01-3.84,5.01-7.12,0-4.18-3.39-7.58-7.58-7.58s-7.58,3.39-7.58,7.58c0,3.5,2.37,6.43,5.6,7.31v44.25l-18.81,15.95v-25.73c3.07-.97,5.3-3.84,5.3-7.23,0-4.18-3.39-7.58-7.58-7.58s-7.58,3.39-7.58,7.58c0,3.39,2.23,6.26,5.3,7.23v30.11s-18.36-17.67-18.36-17.67v-34.93c2.92-1.05,5.01-3.84,5.01-7.12,0-4.18-3.39-7.58-7.58-7.58s-7.58,3.39-7.58,7.58c0,3.5,2.37,6.43,5.6,7.31v36.41s22.9,23.05,22.9,23.05v21.38h4.55v-27.04s23.35-19.49,23.35-19.49v-46.65Zm-6.88-7.12c0-2.38,1.93-4.31,4.31-4.31s4.31,1.93,4.31,4.31-1.93,4.31-4.31,4.31-4.31-1.93-4.31-4.31Zm-46.25,12.17c0-2.38,1.93-4.31,4.31-4.31s4.31,1.93,4.31,4.31-1.87,4.24-4.2,4.3h-.21c-2.33-.06-4.2-1.96-4.2-4.3Zm23.19,22.38c0-2.38,1.93-4.31,4.31-4.31s4.31,1.93,4.31,4.31-1.93,4.31-4.31,4.31-4.31-1.93-4.31-4.31Z"/>
          <path class="cls-1" d="m675.07,393.24h-49.52c-.97-3.07-3.84-5.3-7.23-5.3-4.18,0-7.58,3.39-7.58,7.58s3.39,7.58,7.58,7.58c3.39,0,6.26-2.23,7.23-5.3h53.9s-14.7,12.41-14.7,12.41h-58.71c-1.05-2.92-3.84-5.01-7.12-5.01-4.18,0-7.58,3.39-7.58,7.58s3.39,7.58,7.58,7.58c3.5,0,6.43-2.37,7.31-5.6h60.19s20.08-16.95,20.08-16.95h36.24v-4.55h-41.91s-5.76,0-5.76,0Zm-76.15,23.83c-2.38,0-4.31-1.93-4.31-4.31s1.93-4.31,4.31-4.31,4.24,1.87,4.3,4.2v.21c-.06,2.33-1.96,4.2-4.3,4.2Zm19.41-17.25c-2.38,0-4.31-1.93-4.31-4.31s1.93-4.31,4.31-4.31,4.31,1.93,4.31,4.31-1.93,4.31-4.31,4.31Z"/>
          <path class="cls-1" d="m467.19,240.48v17.79c-3.25,1.02-5.61,4.06-5.61,7.65,0,4.43,3.59,8.02,8.02,8.02s8.02-3.59,8.02-8.02c0-3.59-2.36-6.63-5.61-7.65v-16.14s13.13,15.55,13.13,15.55v21.02s0,0,0,0v3.85l-9.11,11.17v21.44l-11.15,6.54v15.67c-3.26,1.02-5.62,4.06-5.62,7.65,0,4.43,3.59,8.02,8.02,8.02s8.02-3.59,8.02-8.02c0-3.59-2.36-6.63-5.61-7.65v-12.91s8.78-5.15,8.78-5.15l9.36,5.26v63.87c-3.25,1.02-5.61,4.06-5.61,7.65,0,4.43,3.59,8.02,8.02,8.02s8.02-3.59,8.02-8.02c0-3.59-2.36-6.63-5.61-7.65v-66.68l-11.79-6.62v-19.69l7.25-8.9,15.19,9.05v11.82c-3.25,1.02-5.61,4.06-5.61,7.65,0,4.43,3.59,8.02,8.02,8.02s8.02-3.59,8.02-8.02c0-3.59-2.36-6.63-5.61-7.65v-14.56l-18.15-10.82v-4.1h0v-22.02s-17.94-21.25-17.94-21.25v-6.11h-4.81v5.81s0,6.1,0,6.1Zm27.6,155.62c0,2.52-2.04,4.56-4.56,4.56s-4.56-2.04-4.56-4.56,2.04-4.56,4.56-4.56,4.56,2.04,4.56,4.56Zm10.91-85.59c2.52,0,4.56,2.04,4.56,4.56s-2.04,4.56-4.56,4.56-4.56-2.04-4.56-4.56,2.04-4.56,4.56-4.56h0Zm-31.54-44.59c0,2.52-2.04,4.56-4.56,4.56s-4.56-2.04-4.56-4.56,2.04-4.56,4.56-4.56,4.56,2.04,4.56,4.56Zm-11.44,79.11c0-2.52,2.04-4.56,4.56-4.56s4.56,2.04,4.56,4.56-2.04,4.56-4.56,4.56-4.56-2.04-4.56-4.56Z"/>
        </g>
        <g>
          <path class="cls-1" d="m495.6,194.43c-3.59,0-6.63,2.36-7.65,5.61h-55.69s-8.12-5.8-8.12-5.8l5.26-9.36h38.63c1.02,3.25,4.06,5.61,7.65,5.61,4.43,0,8.02-3.59,8.02-8.02s-3.59-8.02-8.02-8.02c-3.59,0-6.63,2.36-7.65,5.61h-41.45l-6.62,11.79h-19.69l-8.9-7.25,17.97-24.11h29.51c1.02,3.25,4.06,5.61,7.65,5.61,4.43,0,8.02-3.59,8.02-8.02s-3.59-8.02-8.02-8.02c-3.59,0-6.63,2.36-7.65,5.61h-32.25l-19.74,27.07h-4.1s-22.02,0-22.02,0l-21.25,17.95h-6.11v4.81h5.81s14.34,18.42,14.34,18.42h25.97c1.11,3.09,4.06,5.3,7.54,5.3,4.43,0,8.02-3.59,8.02-8.02s-3.59-8.02-8.02-8.02c-3.7,0-6.81,2.51-7.73,5.92h-23.43l-10.59-13.61h22.22c1.02,3.25,4.06,5.61,7.65,5.61,4.43,0,8.02-3.59,8.02-8.02s-3.59-8.02-8.02-8.02c-3.59,0-6.63,2.36-7.65,5.61h-20.56s15.55-13.13,15.55-13.13h21.02s0,0,0,0h3.85l11.17,9.11h21.44l9.51,8.18h58.45c1.02,3.26,4.06,5.62,7.65,5.62,4.43,0,8.02-3.59,8.02-8.02s-3.59-8.02-8.02-8.02Zm-19.92-16.52c2.52,0,4.56,2.04,4.56,4.56s-2.04,4.56-4.56,4.56-4.56-2.04-4.56-4.56,2.04-4.56,4.56-4.56Zm-33.74-19.83c0-2.52,2.04-4.56,4.56-4.56s4.56,2.04,4.56,4.56-2.04,4.56-4.56,4.56-4.56-2.04-4.56-4.56h0Zm-54.89,58.58c2.52,0,4.56,2.04,4.56,4.56s-2.04,4.56-4.56,4.56-4.56-2.04-4.56-4.56,2.04-4.56,4.56-4.56Zm-11.88-18.12c2.52,0,4.56,2.04,4.56,4.56s-2.04,4.56-4.56,4.56-4.56-2.04-4.56-4.56,2.04-4.56,4.56-4.56Zm120.44,8.47c-2.52,0-4.56-2.04-4.56-4.56s2.04-4.56,4.56-4.56,4.56,2.04,4.56,4.56-2.04,4.56-4.56,4.56Z"/>
          <path class="cls-1" d="m344.94,297.38c2.38-3.73,1.29-8.69-2.44-11.07-.49-.31-1-.56-1.53-.76l1.26-22.99,10.59-11.43.63,16.85c-1.59.58-3.01,1.66-3.99,3.2-2.38,3.73-1.29,8.69,2.44,11.07,3.73,2.38,8.69,1.29,11.07-2.44s1.29-8.69-2.44-11.07c-.72-.46-1.49-.79-2.28-1l-.81-21.61,11.59-12.56,11.18,12.9.18,42.93c-1.5.6-2.84,1.65-3.77,3.12-2.38,3.73-1.29,8.69,2.44,11.07s8.69,1.29,11.07-2.44c2.38-3.73,1.29-8.69-2.44-11.07-.79-.5-1.63-.84-2.49-1.04l-.19-43.86-13.1-16.28.02-8.39h-4.81s-.02,8.08-.02,8.08l-13.85,15.01h0s-15.72,16.97-15.72,16.97l-1.36,24.75c-1.89.49-3.61,1.66-4.74,3.44-2.38,3.73-1.29,8.69,2.44,11.07,3.73,2.38,8.69,1.29,11.07-2.44Zm42.29,1.91c-1.36,2.12-4.18,2.75-6.3,1.39-2.12-1.36-2.75-4.18-1.39-6.3.8-1.26,2.12-1.97,3.5-2.08h.54c.78.02,1.56.24,2.27.69,2.12,1.36,2.75,4.18,1.39,6.3Zm-27.16-21.34c-1.36,2.12-4.18,2.75-6.3,1.39s-2.75-4.18-1.39-6.3c.84-1.31,2.23-2.04,3.67-2.1h.11c.86-.02,1.74.21,2.52.71,2.12,1.36,2.75,4.18,1.39,6.3Zm-25.73,12.66c1.36-2.12,4.18-2.75,6.3-1.39s2.75,4.18,1.39,6.3c-1.36,2.12-4.18,2.75-6.3,1.39s-2.75-4.18-1.39-6.3Z"/>
          <path class="cls-1" d="m263.26,169.39c3.09-1.11,5.3-4.06,5.3-7.54,0-4.43-3.59-8.02-8.02-8.02s-8.02,3.59-8.02,8.02c0,3.7,2.51,6.81,5.92,7.73v10.16l-22.46,15.01v-17.79c3.25-1.02,5.61-4.06,5.61-7.65,0-4.43-3.59-8.02-8.02-8.02s-8.02,3.59-8.02,8.02c0,3.59,2.36,6.63,5.61,7.65v16.14s-13.13-15.55-13.13-15.55v-21.23c3.09-1.11,5.3-4.06,5.3-7.54,0-4.43-3.59-8.02-8.02-8.02s-8.02,3.59-8.02,8.02c0,3.7,2.51,6.81,5.92,7.73v22.8s17.94,21.25,17.94,21.25v6.11h4.81v-5.81s27.27-18.76,27.27-18.76v-12.71Zm-7.28-7.54c0-2.52,2.04-4.56,4.56-4.56s4.56,2.04,4.56,4.56-2.04,4.56-4.56,4.56-4.56-2.04-4.56-4.56Zm-45.21-13.08c0-2.52,2.04-4.56,4.56-4.56s4.56,2.04,4.56,4.56-1.98,4.49-4.45,4.55h-.22c-2.47-.06-4.45-2.07-4.45-4.55Zm18.25,20.54c0-2.52,2.04-4.56,4.56-4.56s4.56,2.04,4.56,4.56-2.04,4.56-4.56,4.56-4.56-2.04-4.56-4.56Z"/>
          <path class="cls-1" d="m323.61,357.48c1.11,3.09,4.06,5.3,7.54,5.3,4.43,0,8.02-3.59,8.02-8.02s-3.59-8.02-8.02-8.02c-3.7,0-6.81,2.51-7.73,5.92h-10.16l-20.96-19.49h65.36c1.02,3.25,4.06,5.61,7.65,5.61,4.43,0,8.02-3.59,8.02-8.02s-3.59-8.02-8.02-8.02c-3.59,0-6.63,2.36-7.65,5.61h-78.57s15.55-13.13,15.55-13.13h21.23c1.11,3.09,4.06,5.3,7.54,5.3,4.43,0,8.02-3.59,8.02-8.02s-3.59-8.02-8.02-8.02c-3.7,0-6.81,2.51-7.73,5.92h-22.8s-21.25,17.94-21.25,17.94h-9.08v4.81h22.2s26.16,24.3,26.16,24.3h12.71Zm7.54-7.28c2.52,0,4.56,2.04,4.56,4.56s-2.04,4.56-4.56,4.56-4.56-2.04-4.56-4.56,2.04-4.56,4.56-4.56Zm-7.73-42.24c2.52,0,4.56,2.04,4.56,4.56s-2.04,4.56-4.56,4.56-4.49-1.98-4.55-4.45v-.22c.06-2.47,2.07-4.45,4.55-4.45Zm41.9,18.25c2.52,0,4.56,2.04,4.56,4.56s-2.04,4.56-4.56,4.56-4.56-2.04-4.56-4.56,2.04-4.56,4.56-4.56Z"/>
          <path class="cls-1" d="m147.44,273.05c3.76-2.34,4.92-7.28,2.58-11.04-1.11-1.79-2.82-2.98-4.7-3.5l-1.04-24.77-15.5-17.17h0s-13.66-15.19-13.66-15.19l.09-8.09-4.81-.05-.09,8.39-7.25,7.31-.37,30.59c-.86.19-1.71.52-2.51,1.01-3.76,2.34-4.92,7.28-2.58,11.04,2.34,3.76,7.28,4.92,11.04,2.58,3.76-2.34,4.92-7.28,2.58-11.04-.92-1.48-2.24-2.55-3.73-3.17l.35-29.66,5.29-3.95,11.43,12.7-1.09,21.6c-.79.2-1.56.51-2.29.97-3.76,2.34-4.92,7.28-2.58,11.04,2.34,3.76,7.28,4.92,11.04,2.58,3.76-2.34,4.92-7.28,2.58-11.04-.96-1.55-2.37-2.65-3.95-3.25l.85-16.84,10.44,11.56.97,23c-.53.19-1.04.43-1.53.74-3.76,2.34-4.92,7.28-2.58,11.04,2.34,3.76,7.28,4.92,11.04,2.58Zm-45.44-29.57c.71-.44,1.49-.64,2.27-.67h.54c1.38.14,2.68.87,3.47,2.14,1.33,2.14.67,4.95-1.47,6.28s-4.95.67-6.28-1.47c-1.33-2.14-.67-4.95,1.47-6.28Zm20.99,1.08c.79-.49,1.67-.7,2.53-.68h.11c1.44.08,2.82.83,3.64,2.15,1.33,2.14.67,4.95-1.47,6.28s-4.95.67-6.28-1.47-.67-4.95,1.47-6.28Zm22.63,25.55c-2.14,1.33-4.95.67-6.28-1.47s-.67-4.95,1.47-6.28c2.14-1.33,4.95-.67,6.28,1.47,1.33,2.14.67,4.95-1.47,6.28Z"/>
          <path class="cls-1" d="m248.41,434.7c0-3.59-2.36-6.63-5.61-7.65v-43.87s8.78-5.15,8.78-5.15l15.3,11.2v19.42c-3.25,1.02-5.61,4.06-5.61,7.65,0,4.43,3.59,8.02,8.02,8.02s8.02-3.59,8.02-8.02c0-3.59-2.36-6.63-5.61-7.65v-22.23l-17.74-12.57v-19.69l7.25-8.9,30.06,23.92v11.82c-3.25,1.02-5.61,4.06-5.61,7.65,0,4.43,3.59,8.02,8.02,8.02s8.02-3.59,8.02-8.02c0-3.59-2.36-6.63-5.61-7.65v-14.56l-33.02-25.68v-4.1h0v-22.02s-17.94-21.25-17.94-21.25v-22.63h-4.81v22.33s-18.42,14.34-18.42,14.34v45.26c-3.09,1.11-5.3,4.06-5.3,7.54,0,4.43,3.59,8.02,8.02,8.02s8.02-3.59,8.02-8.02c0-3.7-2.51-6.81-5.92-7.73v-42.71l13.61-10.59v23.74c-3.25,1.02-5.61,4.06-5.61,7.65,0,4.43,3.59,8.02,8.02,8.02s8.02-3.59,8.02-8.02c0-3.59-2.36-6.63-5.61-7.65v-22.08s13.13,15.55,13.13,15.55v21.02s0,0,0,0v3.85l-9.11,11.17v21.44l-11.15,7.03v46.14c-3.26,1.02-5.62,4.06-5.62,7.65,0,4.43,3.59,8.02,8.02,8.02s8.02-3.59,8.02-8.02Zm25.44-18.4c0,2.52-2.04,4.56-4.56,4.56s-4.56-2.04-4.56-4.56,2.04-4.56,4.56-4.56,4.56,2.04,4.56,4.56Zm19.83-32.22c2.52,0,4.56,2.04,4.56,4.56s-2.04,4.56-4.56,4.56-4.56-2.04-4.56-4.56,2.04-4.56,4.56-4.56h0Zm-64.52-23.86c0,2.52-2.04,4.56-4.56,4.56s-4.56-2.04-4.56-4.56,2.04-4.56,4.56-4.56,4.56,2.04,4.56,4.56Zm18.12-29.65c0,2.52-2.04,4.56-4.56,4.56s-4.56-2.04-4.56-4.56,2.04-4.56,4.56-4.56,4.56,2.04,4.56,4.56Zm-11.44,104.12c0-2.52,2.04-4.56,4.56-4.56s4.56,2.04,4.56,4.56-2.04,4.56-4.56,4.56-4.56-2.04-4.56-4.56Z"/>
          <path class="cls-1" d="m265.85,199.07c-3.59,0-6.63,2.36-7.65,5.61h-34.74s-6.54,11.16-6.54,11.16h-21.44l-11.17,9.11h-1.98s-23.43,0-23.43,0l-17.3-21.38-6.05.06,21,26.13h23.14s4.1,0,4.1,0l19.74,24.1h18.98c1.02,3.25,4.06,5.61,7.65,5.61,4.43,0,8.02-3.59,8.02-8.02s-3.59-8.02-8.02-8.02c-3.59,0-6.63,2.36-7.65,5.61h-16.24l-17.97-21.14,8.9-7.25h19.69l6.62,11.79h28.18c1.02,3.25,4.06,5.61,7.65,5.61,4.43,0,8.02-3.59,8.02-8.02s-3.59-8.02-8.02-8.02c-3.59,0-6.63,2.36-7.65,5.61h-25.36l-5.26-9.36,5.15-8.77h31.98c1.02,3.25,4.06,5.61,7.65,5.61,4.43,0,8.02-3.59,8.02-8.02s-3.59-8.02-8.02-8.02Zm-40.25,52.38c0-2.52,2.04-4.56,4.56-4.56s4.56,2.04,4.56,4.56-2.04,4.56-4.56,4.56-4.56-2.04-4.56-4.56h0Zm33.74-25.97c2.52,0,4.56,2.04,4.56,4.56s-2.04,4.56-4.56,4.56-4.56-2.04-4.56-4.56,2.04-4.56,4.56-4.56Zm6.5-13.82c-2.52,0-4.56-2.04-4.56-4.56s2.04-4.56,4.56-4.56,4.56,2.04,4.56,4.56-2.04,4.56-4.56,4.56Z"/>
          <path class="cls-1" d="m311.06,289.15c0-4.43-3.59-8.02-8.02-8.02-3.59,0-6.63,2.36-7.65,5.61h-12.91s-5.15-8.78-5.15-8.78l5.26-9.36h34.28c1.02,3.25,4.06,5.61,7.65,5.61,4.43,0,8.02-3.59,8.02-8.02s-3.59-8.02-8.02-8.02c-3.59,0-6.63,2.36-7.65,5.61h-37.1l-6.62,11.79h-19.69l-8.9-7.25,9.05-15.19h23.71c1.02,3.25,4.06,5.61,7.65,5.61,4.43,0,8.02-3.59,8.02-8.02s-3.59-8.02-8.02-8.02c-3.59,0-6.63,2.36-7.65,5.61h-26.45l-10.82,18.15h-4.1s-23.14,0-23.14,0l-18.02,23.16,6.05.06,14.33-18.41h23.43s1.97,0,1.97,0l11.17,9.11h21.44l6.54,11.15h15.67c1.02,3.26,4.06,5.62,7.65,5.62,4.43,0,8.02-3.59,8.02-8.02Zm-30.65-38.42c0-2.52,2.04-4.56,4.56-4.56s4.56,2.04,4.56,4.56-2.04,4.56-4.56,4.56-4.56-2.04-4.56-4.56h0Zm39.55,15.47c0-2.52,2.04-4.56,4.56-4.56s4.56,2.04,4.56,4.56-2.04,4.56-4.56,4.56-4.56-2.04-4.56-4.56Zm-12.36,22.95c0,2.52-2.04,4.56-4.56,4.56s-4.56-2.04-4.56-4.56,2.04-4.56,4.56-4.56,4.56,2.04,4.56,4.56Z"/>
          <path class="cls-1" d="m172.42,429.74c0-3.59-2.36-6.63-5.61-7.65v-15.67s-11.16-6.54-11.16-6.54v-21.44s-9.11-11.17-9.11-11.17v-1.97h0v-23.43s18.41-14.33,18.41-14.33l-.06-6.05-23.16,18.02v23.14h0v4.1s-18.15,10.82-18.15,10.82v26.45c-3.25,1.02-5.61,4.06-5.61,7.65,0,4.43,3.59,8.02,8.02,8.02,4.43,0,8.02-3.59,8.02-8.02,0-3.59-2.36-6.63-5.61-7.65v-23.71s15.19-9.05,15.19-9.05l7.25,8.9v19.69s-11.79,6.62-11.79,6.62v37.1c-3.25,1.02-5.61,4.06-5.61,7.65,0,4.43,3.59,8.02,8.02,8.02,4.43,0,8.02-3.59,8.02-8.02,0-3.59-2.36-6.63-5.61-7.65v-34.28s9.36-5.26,9.36-5.26l8.77,5.15v12.91c-3.25,1.02-5.61,4.06-5.61,7.65,0,4.43,3.59,8.02,8.02,8.02,4.43,0,8.02-3.59,8.02-8.02Zm-46.43-22.63c2.52,0,4.56,2.04,4.56,4.56s-2.04,4.56-4.56,4.56c-2.52,0-4.56-2.04-4.56-4.56s2.04-4.56,4.56-4.56h0Zm20.03,44.11c0,2.52-2.04,4.56-4.56,4.56-2.52,0-4.56-2.04-4.56-4.56s2.04-4.56,4.56-4.56,4.56,2.04,4.56,4.56Zm13.82-21.48c0-2.52,2.04-4.56,4.56-4.56,2.52,0,4.56,2.04,4.56,4.56s-2.04,4.56-4.56,4.56c-2.52,0-4.56-2.04-4.56-4.56Z"/>
          <path class="cls-1" d="m117.33,286.54c-1.05-2.92-3.84-5.01-7.12-5.01-4.18,0-7.58,3.39-7.58,7.58s3.39,7.58,7.58,7.58c3.5,0,6.43-2.37,7.31-5.6h29.38l10.01,12.86h-16.81c-.97-3.07-3.84-5.3-7.23-5.3-4.18,0-7.58,3.39-7.58,7.58s3.39,7.58,7.58,7.58c3.39,0,6.26-2.23,7.23-5.3h21.19s-11.72,12.41-11.72,12.41h-20.06c-1.05-2.92-3.84-5.01-7.12-5.01-4.18,0-7.58,3.39-7.58,7.58s3.39,7.58,7.58,7.58c3.5,0,6.43-2.37,7.31-5.6h21.54s17.11-16.95,17.11-16.95h8.75v-4.55h-14.41s-13.55-17.41-13.55-17.41h-31.79Zm-7.12,6.88c-2.38,0-4.31-1.93-4.31-4.31s1.93-4.31,4.31-4.31,4.31,1.93,4.31,4.31-1.93,4.31-4.31,4.31Zm12.17,34.36c-2.38,0-4.31-1.93-4.31-4.31s1.93-4.31,4.31-4.31,4.24,1.87,4.3,4.2v.21c-.06,2.33-1.96,4.2-4.3,4.2Zm10.49-17.25c-2.38,0-4.31-1.93-4.31-4.31s1.93-4.31,4.31-4.31,4.31,1.93,4.31,4.31-1.93,4.31-4.31,4.31Z"/>
          <path class="cls-1" d="m396.93,378.38l16.52-20.38h26.3s0-4.54,0-4.54h-13.15s-12.71-16.96-12.71-16.96h-15.59c-.87-3.22-3.81-5.6-7.31-5.6-4.18,0-7.58,3.39-7.58,7.58s3.39,7.58,7.58,7.58c3.28,0,6.07-2.09,7.12-5.01h14.12s8.75,12.41,8.75,12.41h-42c-.97-3.07-3.84-5.31-7.23-5.31-4.18,0-7.58,3.39-7.58,7.58s3.39,7.58,7.58,7.58c3.39,0,6.26-2.23,7.23-5.3h28.71s-12.98,15.84-12.98,15.84h-29.38c-.87-3.22-3.81-5.6-7.31-5.6-4.18,0-7.58,3.39-7.58,7.58s3.39,7.58,7.58,7.58c3.28,0,6.07-2.09,7.12-5.01h31.79Zm-34.6-2.57c0,2.38-1.93,4.31-4.31,4.31s-4.31-1.93-4.31-4.31,1.93-4.31,4.31-4.31,4.31,1.93,4.31,4.31Zm32.97-37.44v.21c-.06,2.33-1.96,4.2-4.3,4.2s-4.31-1.93-4.31-4.31,1.93-4.31,4.31-4.31,4.24,1.87,4.3,4.2Zm-19.23,17.35c0,2.38-1.93,4.31-4.31,4.31s-4.31-1.93-4.31-4.31,1.93-4.31,4.31-4.31,4.31,1.93,4.31,4.31Z"/>
          <path class="cls-1" d="m413.95,397.36l-28.09,27.2h-5.2c-1.05-2.92-3.84-5.01-7.12-5.01-4.18,0-7.58,3.39-7.58,7.58s3.39,7.58,7.58,7.58c3.5,0,6.43-2.37,7.31-5.6h6.67s31.01-31.71,31.01-31.71m-44.99,34.04c-2.38,0-4.31-1.93-4.31-4.31s1.93-4.31,4.31-4.31,4.24,1.87,4.3,4.2v.21c-.06,2.33-1.96,4.2-4.3,4.2Z"/>
          <path class="cls-1" d="m365.39,409.66l-31.59,29.19h-5.2c-1.05-2.92-3.84-5.01-7.12-5.01-4.18,0-7.58,3.39-7.58,7.58s3.39,7.58,7.58,7.58c3.5,0,6.43-2.37,7.31-5.6h6.67s31.01-28.73,31.01-28.73m-44.99,31.07c-2.38,0-4.31-1.93-4.31-4.31s1.93-4.31,4.31-4.31,4.24,1.87,4.3,4.2v.21c-.06,2.33-1.96,4.2-4.3,4.2Z"/>
          <path class="cls-1" d="m237.99,380.9l-26.89,17.8v34.76c-2.92,1.05-5.01,3.84-5.01,7.12,0,4.18,3.39,7.58,7.58,7.58s7.58-3.39,7.58-7.58c0-3.5-2.37-6.43-5.6-7.31v-32.36l23.21-15.09m-20.88,54.75c0,2.38-1.93,4.31-4.31,4.31s-4.31-1.93-4.31-4.31,1.93-4.31,4.31-4.31,4.31,1.93,4.31,4.31Z"/>
          <path class="cls-1" d="m212.85,401.01l-26.89,17.8v10.98c-2.92,1.05-5.01,3.84-5.01,7.12,0,4.18,3.39,7.58,7.58,7.58s7.58-3.39,7.58-7.58c0-3.5-2.37-6.43-5.6-7.31v-8.57l23.21-15.09m-20.88,30.96c0,2.38-1.93,4.31-4.31,4.31s-4.31-1.93-4.31-4.31,1.93-4.31,4.31-4.31,4.31,1.93,4.31,4.31Z"/>
          <path class="cls-1" d="m333.96,173.04c2.92-1.05,5.01-3.84,5.01-7.12,0-4.18-3.39-7.58-7.58-7.58s-7.58,3.39-7.58,7.58c0,3.5,2.37,6.43,5.6,7.31v44.25l-18.81,15.95v-25.73c3.07-.97,5.3-3.84,5.3-7.23,0-4.18-3.39-7.58-7.58-7.58s-7.58,3.39-7.58,7.58c0,3.39,2.23,6.26,5.3,7.23v30.11s-18.36-17.67-18.36-17.67v-34.93c2.92-1.05,5.01-3.84,5.01-7.12,0-4.18-3.39-7.58-7.58-7.58s-7.58,3.39-7.58,7.58c0,3.5,2.37,6.43,5.6,7.31v36.41s22.9,23.05,22.9,23.05v21.38h4.55v-27.04s23.35-19.49,23.35-19.49v-46.65Zm-6.88-7.12c0-2.38,1.93-4.31,4.31-4.31s4.31,1.93,4.31,4.31-1.93,4.31-4.31,4.31-4.31-1.93-4.31-4.31Zm-46.25,12.17c0-2.38,1.93-4.31,4.31-4.31s4.31,1.93,4.31,4.31-1.87,4.24-4.2,4.3h-.21c-2.33-.06-4.2-1.96-4.2-4.3Zm23.19,22.38c0-2.38,1.93-4.31,4.31-4.31s4.31,1.93,4.31,4.31-1.93,4.31-4.31,4.31-4.31-1.93-4.31-4.31Z"/>
          <path class="cls-1" d="m375.07,393.24h-49.52c-.97-3.07-3.84-5.3-7.23-5.3-4.18,0-7.58,3.39-7.58,7.58s3.39,7.58,7.58,7.58c3.39,0,6.26-2.23,7.23-5.3h53.9s-14.7,12.41-14.7,12.41h-58.71c-1.05-2.92-3.84-5.01-7.12-5.01-4.18,0-7.58,3.39-7.58,7.58s3.39,7.58,7.58,7.58c3.5,0,6.43-2.37,7.31-5.6h60.19s20.08-16.95,20.08-16.95h36.24v-4.55h-41.91s-5.76,0-5.76,0Zm-76.15,23.83c-2.38,0-4.31-1.93-4.31-4.31s1.93-4.31,4.31-4.31,4.24,1.87,4.3,4.2v.21c-.06,2.33-1.96,4.2-4.3,4.2Zm19.41-17.25c-2.38,0-4.31-1.93-4.31-4.31s1.93-4.31,4.31-4.31,4.31,1.93,4.31,4.31-1.93,4.31-4.31,4.31Z"/>
          <path class="cls-1" d="m167.19,240.48v17.79c-3.25,1.02-5.61,4.06-5.61,7.65,0,4.43,3.59,8.02,8.02,8.02s8.02-3.59,8.02-8.02c0-3.59-2.36-6.63-5.61-7.65v-16.14s13.13,15.55,13.13,15.55v21.02s0,0,0,0v3.85l-9.11,11.17v21.44l-11.15,6.54v15.67c-3.26,1.02-5.62,4.06-5.62,7.65,0,4.43,3.59,8.02,8.02,8.02s8.02-3.59,8.02-8.02c0-3.59-2.36-6.63-5.61-7.65v-12.91s8.78-5.15,8.78-5.15l9.36,5.26v63.87c-3.25,1.02-5.61,4.06-5.61,7.65,0,4.43,3.59,8.02,8.02,8.02s8.02-3.59,8.02-8.02c0-3.59-2.36-6.63-5.61-7.65v-66.68l-11.79-6.62v-19.69l7.25-8.9,15.19,9.05v11.82c-3.25,1.02-5.61,4.06-5.61,7.65,0,4.43,3.59,8.02,8.02,8.02s8.02-3.59,8.02-8.02c0-3.59-2.36-6.63-5.61-7.65v-14.56l-18.15-10.82v-4.1h0v-22.02s-17.94-21.25-17.94-21.25v-6.11h-4.81v5.81s0,6.1,0,6.1Zm27.6,155.62c0,2.52-2.04,4.56-4.56,4.56s-4.56-2.04-4.56-4.56,2.04-4.56,4.56-4.56,4.56,2.04,4.56,4.56Zm10.91-85.59c2.52,0,4.56,2.04,4.56,4.56s-2.04,4.56-4.56,4.56-4.56-2.04-4.56-4.56,2.04-4.56,4.56-4.56h0Zm-31.54-44.59c0,2.52-2.04,4.56-4.56,4.56s-4.56-2.04-4.56-4.56,2.04-4.56,4.56-4.56,4.56,2.04,4.56,4.56Zm-11.44,79.11c0-2.52,2.04-4.56,4.56-4.56s4.56,2.04,4.56,4.56-2.04,4.56-4.56,4.56-4.56-2.04-4.56-4.56Z"/>
        </g>
        <g>
          <path class="cls-1" d="m195.6,194.43c-3.59,0-6.63,2.36-7.65,5.61h-55.69s-8.12-5.8-8.12-5.8l5.26-9.36h38.63c1.02,3.25,4.06,5.61,7.65,5.61,4.43,0,8.02-3.59,8.02-8.02s-3.59-8.02-8.02-8.02c-3.59,0-6.63,2.36-7.65,5.61h-41.45l-6.62,11.79h-19.69l-8.9-7.25,17.97-24.11h29.51c1.02,3.25,4.06,5.61,7.65,5.61,4.43,0,8.02-3.59,8.02-8.02s-3.59-8.02-8.02-8.02c-3.59,0-6.63,2.36-7.65,5.61h-32.25l-19.74,27.07h-4.1s-22.02,0-22.02,0l-21.25,17.95h-6.11v4.81h5.81s14.34,18.42,14.34,18.42h25.97c1.11,3.09,4.06,5.3,7.54,5.3,4.43,0,8.02-3.59,8.02-8.02s-3.59-8.02-8.02-8.02c-3.7,0-6.81,2.51-7.73,5.92h-23.43l-10.59-13.61h22.22c1.02,3.25,4.06,5.61,7.65,5.61,4.43,0,8.02-3.59,8.02-8.02s-3.59-8.02-8.02-8.02c-3.59,0-6.63,2.36-7.65,5.61h-20.56s15.55-13.13,15.55-13.13h21.02s0,0,0,0h3.85l11.17,9.11h21.44l9.51,8.18h58.45c1.02,3.26,4.06,5.62,7.65,5.62,4.43,0,8.02-3.59,8.02-8.02s-3.59-8.02-8.02-8.02Zm-19.92-16.52c2.52,0,4.56,2.04,4.56,4.56s-2.04,4.56-4.56,4.56-4.56-2.04-4.56-4.56,2.04-4.56,4.56-4.56Zm-33.74-19.83c0-2.52,2.04-4.56,4.56-4.56s4.56,2.04,4.56,4.56-2.04,4.56-4.56,4.56-4.56-2.04-4.56-4.56h0Zm-54.89,58.58c2.52,0,4.56,2.04,4.56,4.56s-2.04,4.56-4.56,4.56-4.56-2.04-4.56-4.56,2.04-4.56,4.56-4.56Zm-11.88-18.12c2.52,0,4.56,2.04,4.56,4.56s-2.04,4.56-4.56,4.56-4.56-2.04-4.56-4.56,2.04-4.56,4.56-4.56Zm120.44,8.47c-2.52,0-4.56-2.04-4.56-4.56s2.04-4.56,4.56-4.56,4.56,2.04,4.56,4.56-2.04,4.56-4.56,4.56Z"/>
          <path class="cls-1" d="m44.94,297.38c2.38-3.73,1.29-8.69-2.44-11.07-.49-.31-1-.56-1.53-.76l1.26-22.99,10.59-11.43.63,16.85c-1.59.58-3.01,1.66-3.99,3.2-2.38,3.73-1.29,8.69,2.44,11.07,3.73,2.38,8.69,1.29,11.07-2.44s1.29-8.69-2.44-11.07c-.72-.46-1.49-.79-2.28-1l-.81-21.61,11.59-12.56,11.18,12.9.18,42.93c-1.5.6-2.84,1.65-3.77,3.12-2.38,3.73-1.29,8.69,2.44,11.07s8.69,1.29,11.07-2.44c2.38-3.73,1.29-8.69-2.44-11.07-.79-.5-1.63-.84-2.49-1.04l-.19-43.86-13.1-16.28.02-8.39h-4.81s-.02,8.08-.02,8.08l-13.85,15.01h0s-15.72,16.97-15.72,16.97l-1.36,24.75c-1.89.49-3.61,1.66-4.74,3.44-2.38,3.73-1.29,8.69,2.44,11.07,3.73,2.38,8.69,1.29,11.07-2.44Zm42.29,1.91c-1.36,2.12-4.18,2.75-6.3,1.39-2.12-1.36-2.75-4.18-1.39-6.3.8-1.26,2.12-1.97,3.5-2.08h.54c.78.02,1.56.24,2.27.69,2.12,1.36,2.75,4.18,1.39,6.3Zm-27.16-21.34c-1.36,2.12-4.18,2.75-6.3,1.39s-2.75-4.18-1.39-6.3c.84-1.31,2.23-2.04,3.67-2.1h.11c.86-.02,1.74.21,2.52.71,2.12,1.36,2.75,4.18,1.39,6.3Zm-25.73,12.66c1.36-2.12,4.18-2.75,6.3-1.39s2.75,4.18,1.39,6.3c-1.36,2.12-4.18,2.75-6.3,1.39s-2.75-4.18-1.39-6.3Z"/>
          <path class="cls-1" d="m23.61,357.48c1.11,3.09,4.06,5.3,7.54,5.3,4.43,0,8.02-3.59,8.02-8.02s-3.59-8.02-8.02-8.02c-3.7,0-6.81,2.51-7.73,5.92h-10.16l-20.96-19.49H57.66c1.02,3.25,4.06,5.61,7.65,5.61,4.43,0,8.02-3.59,8.02-8.02s-3.59-8.02-8.02-8.02c-3.59,0-6.63,2.36-7.65,5.61H-20.91s15.55-13.13,15.55-13.13H15.88c1.11,3.09,4.06,5.3,7.54,5.3,4.43,0,8.02-3.59,8.02-8.02s-3.59-8.02-8.02-8.02c-3.7,0-6.81,2.51-7.73,5.92H-7.12s-21.25,17.94-21.25,17.94h-9.08v4.81H-15.25s26.16,24.3,26.16,24.3h12.71Zm7.54-7.28c2.52,0,4.56,2.04,4.56,4.56s-2.04,4.56-4.56,4.56-4.56-2.04-4.56-4.56,2.04-4.56,4.56-4.56Zm-7.73-42.24c2.52,0,4.56,2.04,4.56,4.56s-2.04,4.56-4.56,4.56-4.49-1.98-4.55-4.45v-.22c.06-2.47,2.07-4.45,4.55-4.45Zm41.9,18.25c2.52,0,4.56,2.04,4.56,4.56s-2.04,4.56-4.56,4.56-4.56-2.04-4.56-4.56,2.04-4.56,4.56-4.56Z"/>
          <path class="cls-1" d="m-51.59,434.7c0-3.59-2.36-6.63-5.61-7.65v-43.87s8.78-5.15,8.78-5.15l15.3,11.2v19.42c-3.25,1.02-5.61,4.06-5.61,7.65,0,4.43,3.59,8.02,8.02,8.02s8.02-3.59,8.02-8.02c0-3.59-2.36-6.63-5.61-7.65v-22.23l-17.74-12.57v-19.69l7.25-8.9,30.06,23.92v11.82c-3.25,1.02-5.61,4.06-5.61,7.65,0,4.43,3.59,8.02,8.02,8.02s8.02-3.59,8.02-8.02c0-3.59-2.36-6.63-5.61-7.65v-14.56l-33.02-25.68v-4.1h0v-22.02s-17.94-21.25-17.94-21.25v-22.63h-4.81v22.33s-18.42,14.34-18.42,14.34v45.26c-3.09,1.11-5.3,4.06-5.3,7.54,0,4.43,3.59,8.02,8.02,8.02s8.02-3.59,8.02-8.02c0-3.7-2.51-6.81-5.92-7.73v-42.71l13.61-10.59v23.74c-3.25,1.02-5.61,4.06-5.61,7.65,0,4.43,3.59,8.02,8.02,8.02s8.02-3.59,8.02-8.02c0-3.59-2.36-6.63-5.61-7.65v-22.08s13.13,15.55,13.13,15.55v21.02s0,0,0,0v3.85l-9.11,11.17v21.44l-11.15,7.03v46.14c-3.26,1.02-5.62,4.06-5.62,7.65,0,4.43,3.59,8.02,8.02,8.02s8.02-3.59,8.02-8.02Zm25.44-18.4c0,2.52-2.04,4.56-4.56,4.56s-4.56-2.04-4.56-4.56,2.04-4.56,4.56-4.56,4.56,2.04,4.56,4.56Zm19.83-32.22c2.52,0,4.56,2.04,4.56,4.56s-2.04,4.56-4.56,4.56-4.56-2.04-4.56-4.56,2.04-4.56,4.56-4.56h0Zm-64.52-23.86c0,2.52-2.04,4.56-4.56,4.56s-4.56-2.04-4.56-4.56,2.04-4.56,4.56-4.56,4.56,2.04,4.56,4.56Zm18.12-29.65c0,2.52-2.04,4.56-4.56,4.56s-4.56-2.04-4.56-4.56,2.04-4.56,4.56-4.56,4.56,2.04,4.56,4.56Zm-11.44,104.12c0-2.52,2.04-4.56,4.56-4.56s4.56,2.04,4.56,4.56-2.04,4.56-4.56,4.56-4.56-2.04-4.56-4.56Z"/>
          <path class="cls-1" d="m11.06,289.15c0-4.43-3.59-8.02-8.02-8.02-3.59,0-6.63,2.36-7.65,5.61h-12.91s-5.15-8.78-5.15-8.78l5.26-9.36H16.87c1.02,3.25,4.06,5.61,7.65,5.61,4.43,0,8.02-3.59,8.02-8.02s-3.59-8.02-8.02-8.02c-3.59,0-6.63,2.36-7.65,5.61H-20.23l-6.62,11.79h-19.69l-8.9-7.25,9.05-15.19h23.71c1.02,3.25,4.06,5.61,7.65,5.61,4.43,0,8.02-3.59,8.02-8.02s-3.59-8.02-8.02-8.02c-3.59,0-6.63,2.36-7.65,5.61h-26.45l-10.82,18.15h-4.1s-23.14,0-23.14,0l-18.02,23.16,6.05.06,14.33-18.41h23.43s1.97,0,1.97,0l11.17,9.11h21.44l6.54,11.15H-4.61c1.02,3.26,4.06,5.62,7.65,5.62,4.43,0,8.02-3.59,8.02-8.02Zm-30.65-38.42c0-2.52,2.04-4.56,4.56-4.56s4.56,2.04,4.56,4.56-2.04,4.56-4.56,4.56-4.56-2.04-4.56-4.56h0Zm39.55,15.47c0-2.52,2.04-4.56,4.56-4.56s4.56,2.04,4.56,4.56-2.04,4.56-4.56,4.56-4.56-2.04-4.56-4.56Zm-12.36,22.95c0,2.52-2.04,4.56-4.56,4.56s-4.56-2.04-4.56-4.56,2.04-4.56,4.56-4.56,4.56,2.04,4.56,4.56Z"/>
          <path class="cls-1" d="m96.93,378.38l16.52-20.38h26.3s0-4.54,0-4.54h-13.15s-12.71-16.96-12.71-16.96h-15.59c-.87-3.22-3.81-5.6-7.31-5.6-4.18,0-7.58,3.39-7.58,7.58s3.39,7.58,7.58,7.58c3.28,0,6.07-2.09,7.12-5.01h14.12s8.75,12.41,8.75,12.41h-42c-.97-3.07-3.84-5.31-7.23-5.31-4.18,0-7.58,3.39-7.58,7.58s3.39,7.58,7.58,7.58c3.39,0,6.26-2.23,7.23-5.3h28.71s-12.98,15.84-12.98,15.84h-29.38c-.87-3.22-3.81-5.6-7.31-5.6-4.18,0-7.58,3.39-7.58,7.58s3.39,7.58,7.58,7.58c3.28,0,6.07-2.09,7.12-5.01h31.79Zm-34.6-2.57c0,2.38-1.93,4.31-4.31,4.31s-4.31-1.93-4.31-4.31,1.93-4.31,4.31-4.31,4.31,1.93,4.31,4.31Zm32.97-37.44v.21c-.06,2.33-1.96,4.2-4.3,4.2s-4.31-1.93-4.31-4.31,1.93-4.31,4.31-4.31,4.24,1.87,4.3,4.2Zm-19.23,17.35c0,2.38-1.93,4.31-4.31,4.31s-4.31-1.93-4.31-4.31,1.93-4.31,4.31-4.31,4.31,1.93,4.31,4.31Z"/>
          <path class="cls-1" d="m113.95,397.36l-28.09,27.2h-5.2c-1.05-2.92-3.84-5.01-7.12-5.01-4.18,0-7.58,3.39-7.58,7.58s3.39,7.58,7.58,7.58c3.5,0,6.43-2.37,7.31-5.6h6.67s31.01-31.71,31.01-31.71m-44.99,34.04c-2.38,0-4.31-1.93-4.31-4.31s1.93-4.31,4.31-4.31,4.24,1.87,4.3,4.2v.21c-.06,2.33-1.96,4.2-4.3,4.2Z"/>
          <path class="cls-1" d="m65.39,409.66l-31.59,29.19h-5.2c-1.05-2.92-3.84-5.01-7.12-5.01-4.18,0-7.58,3.39-7.58,7.58s3.39,7.58,7.58,7.58c3.5,0,6.43-2.37,7.31-5.6h6.67s31.01-28.73,31.01-28.73m-44.99,31.07c-2.38,0-4.31-1.93-4.31-4.31s1.93-4.31,4.31-4.31,4.24,1.87,4.3,4.2v.21c-.06,2.33-1.96,4.2-4.3,4.2Z"/>
          <path class="cls-1" d="m33.96,173.04c2.92-1.05,5.01-3.84,5.01-7.12,0-4.18-3.39-7.58-7.58-7.58s-7.58,3.39-7.58,7.58c0,3.5,2.37,6.43,5.6,7.31v44.25l-18.81,15.95v-25.73c3.07-.97,5.3-3.84,5.3-7.23,0-4.18-3.39-7.58-7.58-7.58s-7.58,3.39-7.58,7.58c0,3.39,2.23,6.26,5.3,7.23v30.11s-18.36-17.67-18.36-17.67v-34.93c2.92-1.05,5.01-3.84,5.01-7.12,0-4.18-3.39-7.58-7.58-7.58s-7.58,3.39-7.58,7.58c0,3.5,2.37,6.43,5.6,7.31v36.41s22.9,23.05,22.9,23.05v21.38h4.55v-27.04s23.35-19.49,23.35-19.49v-46.65Zm-6.88-7.12c0-2.38,1.93-4.31,4.31-4.31s4.31,1.93,4.31,4.31-1.93,4.31-4.31,4.31-4.31-1.93-4.31-4.31Zm-46.25,12.17c0-2.38,1.93-4.31,4.31-4.31s4.31,1.93,4.31,4.31-1.87,4.24-4.2,4.3h-.21c-2.33-.06-4.2-1.96-4.2-4.3Zm23.19,22.38c0-2.38,1.93-4.31,4.31-4.31s4.31,1.93,4.31,4.31-1.93,4.31-4.31,4.31-4.31-1.93-4.31-4.31Z"/>
          <path class="cls-1" d="m75.07,393.24H25.55c-.97-3.07-3.84-5.3-7.23-5.3-4.18,0-7.58,3.39-7.58,7.58s3.39,7.58,7.58,7.58c3.39,0,6.26-2.23,7.23-5.3h53.9s-14.7,12.41-14.7,12.41H6.04c-1.05-2.92-3.84-5.01-7.12-5.01-4.18,0-7.58,3.39-7.58,7.58s3.39,7.58,7.58,7.58c3.5,0,6.43-2.37,7.31-5.6h60.19s20.08-16.95,20.08-16.95h36.24v-4.55h-41.91s-5.76,0-5.76,0ZM-1.08,417.07c-2.38,0-4.31-1.93-4.31-4.31s1.93-4.31,4.31-4.31,4.24,1.87,4.3,4.2v.21c-.06,2.33-1.96,4.2-4.3,4.2Zm19.41-17.25c-2.38,0-4.31-1.93-4.31-4.31s1.93-4.31,4.31-4.31,4.31,1.93,4.31,4.31-1.93,4.31-4.31,4.31Z"/>
        </g>
        <g>
          <path class="cls-1" d="m622.42,129.74c0-3.59-2.36-6.63-5.61-7.65v-15.67s-11.16-6.54-11.16-6.54v-21.44s-9.11-11.17-9.11-11.17v-1.97h0v-23.43s18.41-14.33,18.41-14.33l-.06-6.05-23.16,18.02v23.14h0v4.1s-18.15,10.82-18.15,10.82v26.45c-3.25,1.02-5.61,4.06-5.61,7.65,0,4.43,3.59,8.02,8.02,8.02,4.43,0,8.02-3.59,8.02-8.02,0-3.59-2.36-6.63-5.61-7.65v-23.71s15.19-9.05,15.19-9.05l7.25,8.9v19.69s-11.79,6.62-11.79,6.62v37.1c-3.25,1.02-5.61,4.06-5.61,7.65,0,4.43,3.59,8.02,8.02,8.02,4.43,0,8.02-3.59,8.02-8.02,0-3.59-2.36-6.63-5.61-7.65v-34.28s9.36-5.26,9.36-5.26l8.77,5.15v12.91c-3.25,1.02-5.61,4.06-5.61,7.65,0,4.43,3.59,8.02,8.02,8.02,4.43,0,8.02-3.59,8.02-8.02Zm-46.43-22.63c2.52,0,4.56,2.04,4.56,4.56s-2.04,4.56-4.56,4.56c-2.52,0-4.56-2.04-4.56-4.56s2.04-4.56,4.56-4.56h0Zm20.03,44.11c0,2.52-2.04,4.56-4.56,4.56-2.52,0-4.56-2.04-4.56-4.56s2.04-4.56,4.56-4.56,4.56,2.04,4.56,4.56Zm13.82-21.48c0-2.52,2.04-4.56,4.56-4.56,2.52,0,4.56,2.04,4.56,4.56s-2.04,4.56-4.56,4.56c-2.52,0-4.56-2.04-4.56-4.56Z"/>
          <path class="cls-1" d="m567.33-13.46c-1.05-2.92-3.84-5.01-7.12-5.01-4.18,0-7.58,3.39-7.58,7.58s3.39,7.58,7.58,7.58c3.5,0,6.43-2.37,7.31-5.6h29.38l10.01,12.86h-16.81c-.97-3.07-3.84-5.3-7.23-5.3-4.18,0-7.58,3.39-7.58,7.58s3.39,7.58,7.58,7.58c3.39,0,6.26-2.23,7.23-5.3h21.19s-11.72,12.41-11.72,12.41h-20.06c-1.05-2.92-3.84-5.01-7.12-5.01-4.18,0-7.58,3.39-7.58,7.58s3.39,7.58,7.58,7.58c3.5,0,6.43-2.37,7.31-5.6h21.54s17.11-16.95,17.11-16.95h8.75V3.95h-14.41s-13.55-17.41-13.55-17.41h-31.79Zm-7.12,6.88c-2.38,0-4.31-1.93-4.31-4.31s1.93-4.31,4.31-4.31,4.31,1.93,4.31,4.31-1.93,4.31-4.31,4.31Zm12.17,34.36c-2.38,0-4.31-1.93-4.31-4.31s1.93-4.31,4.31-4.31,4.24,1.87,4.3,4.2v.21c-.06,2.33-1.96,4.2-4.3,4.2Zm10.49-17.25c-2.38,0-4.31-1.93-4.31-4.31s1.93-4.31,4.31-4.31,4.31,1.93,4.31,4.31-1.93,4.31-4.31,4.31Z"/>
        </g>
        <g>
          <path class="cls-1" d="m494.94-2.62c2.38-3.73,1.29-8.69-2.44-11.07-.49-.31-1-.56-1.53-.76l1.26-22.99,10.59-11.43.63,16.85c-1.59.58-3.01,1.66-3.99,3.2-2.38,3.73-1.29,8.69,2.44,11.07,3.73,2.38,8.69,1.29,11.07-2.44s1.29-8.69-2.44-11.07c-.72-.46-1.49-.79-2.28-1l-.81-21.61,11.59-12.56,11.18,12.9.18,42.93c-1.5.6-2.84,1.65-3.77,3.12-2.38,3.73-1.29,8.69,2.44,11.07s8.69,1.29,11.07-2.44c2.38-3.73,1.29-8.69-2.44-11.07-.79-.5-1.63-.84-2.49-1.04l-.19-43.86-13.1-16.28.02-8.39h-4.81s-.02,8.08-.02,8.08l-13.85,15.01h0s-15.72,16.97-15.72,16.97l-1.36,24.75c-1.89.49-3.61,1.66-4.74,3.44-2.38,3.73-1.29,8.69,2.44,11.07,3.73,2.38,8.69,1.29,11.07-2.44Zm42.29,1.91c-1.36,2.12-4.18,2.75-6.3,1.39-2.12-1.36-2.75-4.18-1.39-6.3.8-1.26,2.12-1.97,3.5-2.08h.54c.78.02,1.56.24,2.27.69,2.12,1.36,2.75,4.18,1.39,6.3Zm-27.16-21.34c-1.36,2.12-4.18,2.75-6.3,1.39s-2.75-4.18-1.39-6.3c.84-1.31,2.23-2.04,3.67-2.1h.11c.86-.02,1.74.21,2.52.71,2.12,1.36,2.75,4.18,1.39,6.3Zm-25.73,12.66c1.36-2.12,4.18-2.75,6.3-1.39s2.75,4.18,1.39,6.3c-1.36,2.12-4.18,2.75-6.3,1.39s-2.75-4.18-1.39-6.3Z"/>
          <path class="cls-1" d="m473.61,57.48c1.11,3.09,4.06,5.3,7.54,5.3,4.43,0,8.02-3.59,8.02-8.02s-3.59-8.02-8.02-8.02c-3.7,0-6.81,2.51-7.73,5.92h-10.16l-20.96-19.49h65.36c1.02,3.25,4.06,5.61,7.65,5.61,4.43,0,8.02-3.59,8.02-8.02s-3.59-8.02-8.02-8.02c-3.59,0-6.63,2.36-7.65,5.61h-78.57s15.55-13.13,15.55-13.13h21.23c1.11,3.09,4.06,5.3,7.54,5.3,4.43,0,8.02-3.59,8.02-8.02s-3.59-8.02-8.02-8.02c-3.7,0-6.81,2.51-7.73,5.92h-22.8s-21.25,17.94-21.25,17.94h-9.08v4.81h22.2s26.16,24.3,26.16,24.3h12.71Zm7.54-7.28c2.52,0,4.56,2.04,4.56,4.56s-2.04,4.56-4.56,4.56-4.56-2.04-4.56-4.56,2.04-4.56,4.56-4.56Zm-7.73-42.24c2.52,0,4.56,2.04,4.56,4.56s-2.04,4.56-4.56,4.56-4.49-1.98-4.55-4.45v-.22c.06-2.47,2.07-4.45,4.55-4.45Zm41.9,18.25c2.52,0,4.56,2.04,4.56,4.56s-2.04,4.56-4.56,4.56-4.56-2.04-4.56-4.56,2.04-4.56,4.56-4.56Z"/>
          <path class="cls-1" d="m398.41,134.7c0-3.59-2.36-6.63-5.61-7.65v-43.87s8.78-5.15,8.78-5.15l15.3,11.2v19.42c-3.25,1.02-5.61,4.06-5.61,7.65,0,4.43,3.59,8.02,8.02,8.02s8.02-3.59,8.02-8.02c0-3.59-2.36-6.63-5.61-7.65v-22.23l-17.74-12.57v-19.69l7.25-8.9,30.06,23.92v11.82c-3.25,1.02-5.61,4.06-5.61,7.65,0,4.43,3.59,8.02,8.02,8.02s8.02-3.59,8.02-8.02c0-3.59-2.36-6.63-5.61-7.65v-14.56l-33.02-25.68v-4.1h0V14.63s-17.94-21.25-17.94-21.25v-22.63h-4.81V-6.92s-18.42,14.34-18.42,14.34v45.26c-3.09,1.11-5.3,4.06-5.3,7.54,0,4.43,3.59,8.02,8.02,8.02s8.02-3.59,8.02-8.02c0-3.7-2.51-6.81-5.92-7.73V9.77l13.61-10.59v23.74c-3.25,1.02-5.61,4.06-5.61,7.65,0,4.43,3.59,8.02,8.02,8.02s8.02-3.59,8.02-8.02c0-3.59-2.36-6.63-5.61-7.65V.84s13.13,15.55,13.13,15.55v21.02s0,0,0,0v3.85l-9.11,11.17v21.44l-11.15,7.03v46.14c-3.26,1.02-5.62,4.06-5.62,7.65,0,4.43,3.59,8.02,8.02,8.02s8.02-3.59,8.02-8.02Zm25.44-18.4c0,2.52-2.04,4.56-4.56,4.56s-4.56-2.04-4.56-4.56,2.04-4.56,4.56-4.56,4.56,2.04,4.56,4.56Zm19.83-32.22c2.52,0,4.56,2.04,4.56,4.56s-2.04,4.56-4.56,4.56-4.56-2.04-4.56-4.56,2.04-4.56,4.56-4.56h0Zm-64.52-23.86c0,2.52-2.04,4.56-4.56,4.56s-4.56-2.04-4.56-4.56,2.04-4.56,4.56-4.56,4.56,2.04,4.56,4.56Zm18.12-29.65c0,2.52-2.04,4.56-4.56,4.56s-4.56-2.04-4.56-4.56,2.04-4.56,4.56-4.56,4.56,2.04,4.56,4.56Zm-11.44,104.12c0-2.52,2.04-4.56,4.56-4.56s4.56,2.04,4.56,4.56-2.04,4.56-4.56,4.56-4.56-2.04-4.56-4.56Z"/>
          <path class="cls-1" d="m322.42,129.74c0-3.59-2.36-6.63-5.61-7.65v-15.67s-11.16-6.54-11.16-6.54v-21.44s-9.11-11.17-9.11-11.17v-1.97h0v-23.43s18.41-14.33,18.41-14.33l-.06-6.05-23.16,18.02v23.14h0v4.1s-18.15,10.82-18.15,10.82v26.45c-3.25,1.02-5.61,4.06-5.61,7.65,0,4.43,3.59,8.02,8.02,8.02,4.43,0,8.02-3.59,8.02-8.02,0-3.59-2.36-6.63-5.61-7.65v-23.71s15.19-9.05,15.19-9.05l7.25,8.9v19.69s-11.79,6.62-11.79,6.62v37.1c-3.25,1.02-5.61,4.06-5.61,7.65,0,4.43,3.59,8.02,8.02,8.02,4.43,0,8.02-3.59,8.02-8.02,0-3.59-2.36-6.63-5.61-7.65v-34.28s9.36-5.26,9.36-5.26l8.77,5.15v12.91c-3.25,1.02-5.61,4.06-5.61,7.65,0,4.43,3.59,8.02,8.02,8.02,4.43,0,8.02-3.59,8.02-8.02Zm-46.43-22.63c2.52,0,4.56,2.04,4.56,4.56s-2.04,4.56-4.56,4.56c-2.52,0-4.56-2.04-4.56-4.56s2.04-4.56,4.56-4.56h0Zm20.03,44.11c0,2.52-2.04,4.56-4.56,4.56-2.52,0-4.56-2.04-4.56-4.56s2.04-4.56,4.56-4.56,4.56,2.04,4.56,4.56Zm13.82-21.48c0-2.52,2.04-4.56,4.56-4.56,2.52,0,4.56,2.04,4.56,4.56s-2.04,4.56-4.56,4.56c-2.52,0-4.56-2.04-4.56-4.56Z"/>
          <path class="cls-1" d="m267.33-13.46c-1.05-2.92-3.84-5.01-7.12-5.01-4.18,0-7.58,3.39-7.58,7.58s3.39,7.58,7.58,7.58c3.5,0,6.43-2.37,7.31-5.6h29.38l10.01,12.86h-16.81c-.97-3.07-3.84-5.3-7.23-5.3-4.18,0-7.58,3.39-7.58,7.58s3.39,7.58,7.58,7.58c3.39,0,6.26-2.23,7.23-5.3h21.19s-11.72,12.41-11.72,12.41h-20.06c-1.05-2.92-3.84-5.01-7.12-5.01-4.18,0-7.58,3.39-7.58,7.58s3.39,7.58,7.58,7.58c3.5,0,6.43-2.37,7.31-5.6h21.54s17.11-16.95,17.11-16.95h8.75V3.95h-14.41s-13.55-17.41-13.55-17.41h-31.79Zm-7.12,6.88c-2.38,0-4.31-1.93-4.31-4.31s1.93-4.31,4.31-4.31,4.31,1.93,4.31,4.31-1.93,4.31-4.31,4.31Zm12.17,34.36c-2.38,0-4.31-1.93-4.31-4.31s1.93-4.31,4.31-4.31,4.24,1.87,4.3,4.2v.21c-.06,2.33-1.96,4.2-4.3,4.2Zm10.49-17.25c-2.38,0-4.31-1.93-4.31-4.31s1.93-4.31,4.31-4.31,4.31,1.93,4.31,4.31-1.93,4.31-4.31,4.31Z"/>
          <path class="cls-1" d="m546.93,78.38l16.52-20.38h26.3s0-4.54,0-4.54h-13.15s-12.71-16.96-12.71-16.96h-15.59c-.87-3.22-3.81-5.6-7.31-5.6-4.18,0-7.58,3.39-7.58,7.58s3.39,7.58,7.58,7.58c3.28,0,6.07-2.09,7.12-5.01h14.12s8.75,12.41,8.75,12.41h-42c-.97-3.07-3.84-5.31-7.23-5.31-4.18,0-7.58,3.39-7.58,7.58s3.39,7.58,7.58,7.58c3.39,0,6.26-2.23,7.23-5.3h28.71s-12.98,15.84-12.98,15.84h-29.38c-.87-3.22-3.81-5.6-7.31-5.6-4.18,0-7.58,3.39-7.58,7.58s3.39,7.58,7.58,7.58c3.28,0,6.07-2.09,7.12-5.01h31.79Zm-34.6-2.57c0,2.38-1.93,4.31-4.31,4.31s-4.31-1.93-4.31-4.31,1.93-4.31,4.31-4.31,4.31,1.93,4.31,4.31Zm32.97-37.44v.21c-.06,2.33-1.96,4.2-4.3,4.2s-4.31-1.93-4.31-4.31,1.93-4.31,4.31-4.31,4.24,1.87,4.3,4.2Zm-19.23,17.35c0,2.38-1.93,4.31-4.31,4.31s-4.31-1.93-4.31-4.31,1.93-4.31,4.31-4.31,4.31,1.93,4.31,4.31Z"/>
          <path class="cls-1" d="m563.95,97.36l-28.09,27.2h-5.2c-1.05-2.92-3.84-5.01-7.12-5.01-4.18,0-7.58,3.39-7.58,7.58s3.39,7.58,7.58,7.58c3.5,0,6.43-2.37,7.31-5.6h6.67s31.01-31.71,31.01-31.71m-44.99,34.04c-2.38,0-4.31-1.93-4.31-4.31s1.93-4.31,4.31-4.31,4.24,1.87,4.3,4.2v.21c-.06,2.33-1.96,4.2-4.3,4.2Z"/>
          <path class="cls-1" d="m515.39,109.66l-31.59,29.19h-5.2c-1.05-2.92-3.84-5.01-7.12-5.01-4.18,0-7.58,3.39-7.58,7.58s3.39,7.58,7.58,7.58c3.5,0,6.43-2.37,7.31-5.6h6.67s31.01-28.73,31.01-28.73m-44.99,31.07c-2.38,0-4.31-1.93-4.31-4.31s1.93-4.31,4.31-4.31,4.24,1.87,4.3,4.2v.21c-.06,2.33-1.96,4.2-4.3,4.2Z"/>
          <path class="cls-1" d="m387.99,80.9l-26.89,17.8v34.76c-2.92,1.05-5.01,3.84-5.01,7.12,0,4.18,3.39,7.58,7.58,7.58s7.58-3.39,7.58-7.58c0-3.5-2.37-6.43-5.6-7.31v-32.36l23.21-15.09m-20.88,54.75c0,2.38-1.93,4.31-4.31,4.31s-4.31-1.93-4.31-4.31,1.93-4.31,4.31-4.31,4.31,1.93,4.31,4.31Z"/>
          <path class="cls-1" d="m362.85,101.01l-26.89,17.8v10.98c-2.92,1.05-5.01,3.84-5.01,7.12,0,4.18,3.39,7.58,7.58,7.58s7.58-3.39,7.58-7.58c0-3.5-2.37-6.43-5.6-7.31v-8.57l23.21-15.09m-20.88,30.96c0,2.38-1.93,4.31-4.31,4.31s-4.31-1.93-4.31-4.31,1.93-4.31,4.31-4.31,4.31,1.93,4.31,4.31Z"/>
          <path class="cls-1" d="m525.07,93.24h-49.52c-.97-3.07-3.84-5.3-7.23-5.3-4.18,0-7.58,3.39-7.58,7.58s3.39,7.58,7.58,7.58c3.39,0,6.26-2.23,7.23-5.3h53.9s-14.7,12.41-14.7,12.41h-58.71c-1.05-2.92-3.84-5.01-7.12-5.01-4.18,0-7.58,3.39-7.58,7.58s3.39,7.58,7.58,7.58c3.5,0,6.43-2.37,7.31-5.6h60.19s20.08-16.95,20.08-16.95h36.24v-4.55h-41.91s-5.76,0-5.76,0Zm-76.15,23.83c-2.38,0-4.31-1.93-4.31-4.31s1.93-4.31,4.31-4.31,4.24,1.87,4.3,4.2v.21c-.06,2.33-1.96,4.2-4.3,4.2Zm19.41-17.25c-2.38,0-4.31-1.93-4.31-4.31s1.93-4.31,4.31-4.31,4.31,1.93,4.31,4.31-1.93,4.31-4.31,4.31Z"/>
          <path class="cls-1" d="m317.19-59.52v17.79c-3.25,1.02-5.61,4.06-5.61,7.65,0,4.43,3.59,8.02,8.02,8.02s8.02-3.59,8.02-8.02c0-3.59-2.36-6.63-5.61-7.65v-16.14s13.13,15.55,13.13,15.55v21.02s0,0,0,0v3.85l-9.11,11.17V15.17l-11.15,6.54v15.67c-3.26,1.02-5.62,4.06-5.62,7.65,0,4.43,3.59,8.02,8.02,8.02s8.02-3.59,8.02-8.02c0-3.59-2.36-6.63-5.61-7.65v-12.91s8.78-5.15,8.78-5.15l9.36,5.26v63.87c-3.25,1.02-5.61,4.06-5.61,7.65,0,4.43,3.59,8.02,8.02,8.02s8.02-3.59,8.02-8.02c0-3.59-2.36-6.63-5.61-7.65V21.76l-11.79-6.62V-4.55l7.25-8.9,15.19,9.05V7.42c-3.25,1.02-5.61,4.06-5.61,7.65,0,4.43,3.59,8.02,8.02,8.02s8.02-3.59,8.02-8.02c0-3.59-2.36-6.63-5.61-7.65V-7.13l-18.15-10.82v-4.1h0v-22.02s-17.94-21.25-17.94-21.25v-6.11h-4.81v5.81s0,6.1,0,6.1Zm27.6,155.62c0,2.52-2.04,4.56-4.56,4.56s-4.56-2.04-4.56-4.56,2.04-4.56,4.56-4.56,4.56,2.04,4.56,4.56Zm10.91-85.59c2.52,0,4.56,2.04,4.56,4.56s-2.04,4.56-4.56,4.56-4.56-2.04-4.56-4.56,2.04-4.56,4.56-4.56h0Zm-31.54-44.59c0,2.52-2.04,4.56-4.56,4.56s-4.56-2.04-4.56-4.56,2.04-4.56,4.56-4.56,4.56,2.04,4.56,4.56Zm-11.44,79.11c0-2.52,2.04-4.56,4.56-4.56s4.56,2.04,4.56,4.56-2.04,4.56-4.56,4.56-4.56-2.04-4.56-4.56Z"/>
        </g>
        <g>
          <path class="cls-1" d="m194.94-2.62c2.38-3.73,1.29-8.69-2.44-11.07-.49-.31-1-.56-1.53-.76l1.26-22.99,10.59-11.43.63,16.85c-1.59.58-3.01,1.66-3.99,3.2-2.38,3.73-1.29,8.69,2.44,11.07,3.73,2.38,8.69,1.29,11.07-2.44s1.29-8.69-2.44-11.07c-.72-.46-1.49-.79-2.28-1l-.81-21.61,11.59-12.56,11.18,12.9.18,42.93c-1.5.6-2.84,1.65-3.77,3.12-2.38,3.73-1.29,8.69,2.44,11.07s8.69,1.29,11.07-2.44c2.38-3.73,1.29-8.69-2.44-11.07-.79-.5-1.63-.84-2.49-1.04l-.19-43.86-13.1-16.28.02-8.39h-4.81s-.02,8.08-.02,8.08l-13.85,15.01h0s-15.72,16.97-15.72,16.97l-1.36,24.75c-1.89.49-3.61,1.66-4.74,3.44-2.38,3.73-1.29,8.69,2.44,11.07,3.73,2.38,8.69,1.29,11.07-2.44Zm42.29,1.91c-1.36,2.12-4.18,2.75-6.3,1.39-2.12-1.36-2.75-4.18-1.39-6.3.8-1.26,2.12-1.97,3.5-2.08h.54c.78.02,1.56.24,2.27.69,2.12,1.36,2.75,4.18,1.39,6.3Zm-27.16-21.34c-1.36,2.12-4.18,2.75-6.3,1.39s-2.75-4.18-1.39-6.3c.84-1.31,2.23-2.04,3.67-2.1h.11c.86-.02,1.74.21,2.52.71,2.12,1.36,2.75,4.18,1.39,6.3Zm-25.73,12.66c1.36-2.12,4.18-2.75,6.3-1.39s2.75,4.18,1.39,6.3c-1.36,2.12-4.18,2.75-6.3,1.39s-2.75-4.18-1.39-6.3Z"/>
          <path class="cls-1" d="m173.61,57.48c1.11,3.09,4.06,5.3,7.54,5.3,4.43,0,8.02-3.59,8.02-8.02s-3.59-8.02-8.02-8.02c-3.7,0-6.81,2.51-7.73,5.92h-10.16l-20.96-19.49h65.36c1.02,3.25,4.06,5.61,7.65,5.61,4.43,0,8.02-3.59,8.02-8.02s-3.59-8.02-8.02-8.02c-3.59,0-6.63,2.36-7.65,5.61h-78.57s15.55-13.13,15.55-13.13h21.23c1.11,3.09,4.06,5.3,7.54,5.3,4.43,0,8.02-3.59,8.02-8.02s-3.59-8.02-8.02-8.02c-3.7,0-6.81,2.51-7.73,5.92h-22.8s-21.25,17.94-21.25,17.94h-9.08v4.81h22.2s26.16,24.3,26.16,24.3h12.71Zm7.54-7.28c2.52,0,4.56,2.04,4.56,4.56s-2.04,4.56-4.56,4.56-4.56-2.04-4.56-4.56,2.04-4.56,4.56-4.56Zm-7.73-42.24c2.52,0,4.56,2.04,4.56,4.56s-2.04,4.56-4.56,4.56-4.49-1.98-4.55-4.45v-.22c.06-2.47,2.07-4.45,4.55-4.45Zm41.9,18.25c2.52,0,4.56,2.04,4.56,4.56s-2.04,4.56-4.56,4.56-4.56-2.04-4.56-4.56,2.04-4.56,4.56-4.56Z"/>
          <path class="cls-1" d="m98.41,134.7c0-3.59-2.36-6.63-5.61-7.65v-43.87s8.78-5.15,8.78-5.15l15.3,11.2v19.42c-3.25,1.02-5.61,4.06-5.61,7.65,0,4.43,3.59,8.02,8.02,8.02s8.02-3.59,8.02-8.02c0-3.59-2.36-6.63-5.61-7.65v-22.23l-17.74-12.57v-19.69l7.25-8.9,30.06,23.92v11.82c-3.25,1.02-5.61,4.06-5.61,7.65,0,4.43,3.59,8.02,8.02,8.02s8.02-3.59,8.02-8.02c0-3.59-2.36-6.63-5.61-7.65v-14.56l-33.02-25.68v-4.1h0V14.63s-17.94-21.25-17.94-21.25v-22.63h-4.81V-6.92s-18.42,14.34-18.42,14.34v45.26c-3.09,1.11-5.3,4.06-5.3,7.54,0,4.43,3.59,8.02,8.02,8.02s8.02-3.59,8.02-8.02c0-3.7-2.51-6.81-5.92-7.73V9.77L90.3-.82v23.74c-3.25,1.02-5.61,4.06-5.61,7.65,0,4.43,3.59,8.02,8.02,8.02s8.02-3.59,8.02-8.02c0-3.59-2.36-6.63-5.61-7.65V.84s13.13,15.55,13.13,15.55v21.02s0,0,0,0v3.85l-9.11,11.17v21.44l-11.15,7.03v46.14c-3.26,1.02-5.62,4.06-5.62,7.65,0,4.43,3.59,8.02,8.02,8.02s8.02-3.59,8.02-8.02Zm25.44-18.4c0,2.52-2.04,4.56-4.56,4.56s-4.56-2.04-4.56-4.56,2.04-4.56,4.56-4.56,4.56,2.04,4.56,4.56Zm19.83-32.22c2.52,0,4.56,2.04,4.56,4.56s-2.04,4.56-4.56,4.56-4.56-2.04-4.56-4.56,2.04-4.56,4.56-4.56h0Zm-64.52-23.86c0,2.52-2.04,4.56-4.56,4.56s-4.56-2.04-4.56-4.56,2.04-4.56,4.56-4.56,4.56,2.04,4.56,4.56Zm18.12-29.65c0,2.52-2.04,4.56-4.56,4.56s-4.56-2.04-4.56-4.56,2.04-4.56,4.56-4.56,4.56,2.04,4.56,4.56Zm-11.44,104.12c0-2.52,2.04-4.56,4.56-4.56s4.56,2.04,4.56,4.56-2.04,4.56-4.56,4.56-4.56-2.04-4.56-4.56Z"/>
          <path class="cls-1" d="m22.42,129.74c0-3.59-2.36-6.63-5.61-7.65v-15.67s-11.16-6.54-11.16-6.54v-21.44s-9.11-11.17-9.11-11.17v-1.97h0v-23.43s18.41-14.33,18.41-14.33l-.06-6.05-23.16,18.02v23.14h0v4.1s-18.15,10.82-18.15,10.82v26.45c-3.25,1.02-5.61,4.06-5.61,7.65,0,4.43,3.59,8.02,8.02,8.02,4.43,0,8.02-3.59,8.02-8.02,0-3.59-2.36-6.63-5.61-7.65v-23.71s15.19-9.05,15.19-9.05l7.25,8.9v19.69s-11.79,6.62-11.79,6.62v37.1c-3.25,1.02-5.61,4.06-5.61,7.65,0,4.43,3.59,8.02,8.02,8.02,4.43,0,8.02-3.59,8.02-8.02,0-3.59-2.36-6.63-5.61-7.65v-34.28s9.36-5.26,9.36-5.26l8.77,5.15v12.91c-3.25,1.02-5.61,4.06-5.61,7.65,0,4.43,3.59,8.02,8.02,8.02,4.43,0,8.02-3.59,8.02-8.02Zm-46.43-22.63c2.52,0,4.56,2.04,4.56,4.56s-2.04,4.56-4.56,4.56c-2.52,0-4.56-2.04-4.56-4.56s2.04-4.56,4.56-4.56h0ZM-3.99,151.22c0,2.52-2.04,4.56-4.56,4.56-2.52,0-4.56-2.04-4.56-4.56s2.04-4.56,4.56-4.56,4.56,2.04,4.56,4.56Zm13.82-21.48c0-2.52,2.04-4.56,4.56-4.56,2.52,0,4.56,2.04,4.56,4.56s-2.04,4.56-4.56,4.56c-2.52,0-4.56-2.04-4.56-4.56Z"/>
          <path class="cls-1" d="m-32.67-13.46c-1.05-2.92-3.84-5.01-7.12-5.01-4.18,0-7.58,3.39-7.58,7.58s3.39,7.58,7.58,7.58c3.5,0,6.43-2.37,7.31-5.6H-3.11L6.9,3.95H-9.91c-.97-3.07-3.84-5.3-7.23-5.3-4.18,0-7.58,3.39-7.58,7.58s3.39,7.58,7.58,7.58c3.39,0,6.26-2.23,7.23-5.3H11.28S-.44,20.9-.44,20.9h-20.06c-1.05-2.92-3.84-5.01-7.12-5.01-4.18,0-7.58,3.39-7.58,7.58s3.39,7.58,7.58,7.58c3.5,0,6.43-2.37,7.31-5.6H1.22S18.33,8.49,18.33,8.49h8.75V3.95h-14.41S-.88-13.46-.88-13.46h-31.79Zm-7.12,6.88c-2.38,0-4.31-1.93-4.31-4.31s1.93-4.31,4.31-4.31,4.31,1.93,4.31,4.31-1.93,4.31-4.31,4.31Zm12.17,34.36c-2.38,0-4.31-1.93-4.31-4.31s1.93-4.31,4.31-4.31,4.24,1.87,4.3,4.2v.21c-.06,2.33-1.96,4.2-4.3,4.2Zm10.49-17.25c-2.38,0-4.31-1.93-4.31-4.31s1.93-4.31,4.31-4.31,4.31,1.93,4.31,4.31-1.93,4.31-4.31,4.31Z"/>
          <path class="cls-1" d="m246.93,78.38l16.52-20.38h26.3s0-4.54,0-4.54h-13.15s-12.71-16.96-12.71-16.96h-15.59c-.87-3.22-3.81-5.6-7.31-5.6-4.18,0-7.58,3.39-7.58,7.58s3.39,7.58,7.58,7.58c3.28,0,6.07-2.09,7.12-5.01h14.12s8.75,12.41,8.75,12.41h-42c-.97-3.07-3.84-5.31-7.23-5.31-4.18,0-7.58,3.39-7.58,7.58s3.39,7.58,7.58,7.58c3.39,0,6.26-2.23,7.23-5.3h28.71s-12.98,15.84-12.98,15.84h-29.38c-.87-3.22-3.81-5.6-7.31-5.6-4.18,0-7.58,3.39-7.58,7.58s3.39,7.58,7.58,7.58c3.28,0,6.07-2.09,7.12-5.01h31.79Zm-34.6-2.57c0,2.38-1.93,4.31-4.31,4.31s-4.31-1.93-4.31-4.31,1.93-4.31,4.31-4.31,4.31,1.93,4.31,4.31Zm32.97-37.44v.21c-.06,2.33-1.96,4.2-4.3,4.2s-4.31-1.93-4.31-4.31,1.93-4.31,4.31-4.31,4.24,1.87,4.3,4.2Zm-19.23,17.35c0,2.38-1.93,4.31-4.31,4.31s-4.31-1.93-4.31-4.31,1.93-4.31,4.31-4.31,4.31,1.93,4.31,4.31Z"/>
          <path class="cls-1" d="m263.95,97.36l-28.09,27.2h-5.2c-1.05-2.92-3.84-5.01-7.12-5.01-4.18,0-7.58,3.39-7.58,7.58s3.39,7.58,7.58,7.58c3.5,0,6.43-2.37,7.31-5.6h6.67s31.01-31.71,31.01-31.71m-44.99,34.04c-2.38,0-4.31-1.93-4.31-4.31s1.93-4.31,4.31-4.31,4.24,1.87,4.3,4.2v.21c-.06,2.33-1.96,4.2-4.3,4.2Z"/>
          <path class="cls-1" d="m215.39,109.66l-31.59,29.19h-5.2c-1.05-2.92-3.84-5.01-7.12-5.01-4.18,0-7.58,3.39-7.58,7.58s3.39,7.58,7.58,7.58c3.5,0,6.43-2.37,7.31-5.6h6.67s31.01-28.73,31.01-28.73m-44.99,31.07c-2.38,0-4.31-1.93-4.31-4.31s1.93-4.31,4.31-4.31,4.24,1.87,4.3,4.2v.21c-.06,2.33-1.96,4.2-4.3,4.2Z"/>
          <path class="cls-1" d="m87.99,80.9l-26.89,17.8v34.76c-2.92,1.05-5.01,3.84-5.01,7.12,0,4.18,3.39,7.58,7.58,7.58s7.58-3.39,7.58-7.58c0-3.5-2.37-6.43-5.6-7.31v-32.36l23.21-15.09m-20.88,54.75c0,2.38-1.93,4.31-4.31,4.31s-4.31-1.93-4.31-4.31,1.93-4.31,4.31-4.31,4.31,1.93,4.31,4.31Z"/>
          <path class="cls-1" d="m62.85,101.01l-26.89,17.8v10.98c-2.92,1.05-5.01,3.84-5.01,7.12,0,4.18,3.39,7.58,7.58,7.58s7.58-3.39,7.58-7.58c0-3.5-2.37-6.43-5.6-7.31v-8.57l23.21-15.09m-20.88,30.96c0,2.38-1.93,4.31-4.31,4.31s-4.31-1.93-4.31-4.31,1.93-4.31,4.31-4.31,4.31,1.93,4.31,4.31Z"/>
          <path class="cls-1" d="m225.07,93.24h-49.52c-.97-3.07-3.84-5.3-7.23-5.3-4.18,0-7.58,3.39-7.58,7.58s3.39,7.58,7.58,7.58c3.39,0,6.26-2.23,7.23-5.3h53.9s-14.7,12.41-14.7,12.41h-58.71c-1.05-2.92-3.84-5.01-7.12-5.01-4.18,0-7.58,3.39-7.58,7.58s3.39,7.58,7.58,7.58c3.5,0,6.43-2.37,7.31-5.6h60.19s20.08-16.95,20.08-16.95h36.24v-4.55h-41.91s-5.76,0-5.76,0Zm-76.15,23.83c-2.38,0-4.31-1.93-4.31-4.31s1.93-4.31,4.31-4.31,4.24,1.87,4.3,4.2v.21c-.06,2.33-1.96,4.2-4.3,4.2Zm19.41-17.25c-2.38,0-4.31-1.93-4.31-4.31s1.93-4.31,4.31-4.31,4.31,1.93,4.31,4.31-1.93,4.31-4.31,4.31Z"/>
          <path class="cls-1" d="m17.19-59.52v17.79c-3.25,1.02-5.61,4.06-5.61,7.65,0,4.43,3.59,8.02,8.02,8.02s8.02-3.59,8.02-8.02c0-3.59-2.36-6.63-5.61-7.65v-16.14s13.13,15.55,13.13,15.55v21.02s0,0,0,0v3.85l-9.11,11.17V15.17l-11.15,6.54v15.67c-3.26,1.02-5.62,4.06-5.62,7.65,0,4.43,3.59,8.02,8.02,8.02s8.02-3.59,8.02-8.02c0-3.59-2.36-6.63-5.61-7.65v-12.91s8.78-5.15,8.78-5.15l9.36,5.26v63.87c-3.25,1.02-5.61,4.06-5.61,7.65,0,4.43,3.59,8.02,8.02,8.02s8.02-3.59,8.02-8.02c0-3.59-2.36-6.63-5.61-7.65V21.76l-11.79-6.62V-4.55l7.25-8.9,15.19,9.05V7.42c-3.25,1.02-5.61,4.06-5.61,7.65,0,4.43,3.59,8.02,8.02,8.02s8.02-3.59,8.02-8.02c0-3.59-2.36-6.63-5.61-7.65V-7.13l-18.15-10.82v-4.1h0v-22.02s-17.94-21.25-17.94-21.25v-6.11h-4.81v5.81s0,6.1,0,6.1Zm27.6,155.62c0,2.52-2.04,4.56-4.56,4.56s-4.56-2.04-4.56-4.56,2.04-4.56,4.56-4.56,4.56,2.04,4.56,4.56ZM55.7,10.51c2.52,0,4.56,2.04,4.56,4.56s-2.04,4.56-4.56,4.56-4.56-2.04-4.56-4.56,2.04-4.56,4.56-4.56h0Zm-31.54-44.59c0,2.52-2.04,4.56-4.56,4.56s-4.56-2.04-4.56-4.56,2.04-4.56,4.56-4.56,4.56,2.04,4.56,4.56ZM12.72,45.03c0-2.52,2.04-4.56,4.56-4.56s4.56,2.04,4.56,4.56-2.04,4.56-4.56,4.56-4.56-2.04-4.56-4.56Z"/>
        </g>
      </g>
    </pattern>
  </defs>
  <rect class="cls-2" x="-11" y="-16" width="1953" height="1113"/>
</svg>